<?xml version="1.0" standalone="no"?>
<!DOCTYPE svg PUBLIC "-//W3C//DTD SVG 20010904//EN"
 "http://www.w3.org/TR/2001/REC-SVG-20010904/DTD/svg10.dtd">
<svg version="1.0" xmlns="http://www.w3.org/2000/svg"
 width="173.000000pt" height="211.000000pt" viewBox="0 0 173.000000 211.000000"
 preserveAspectRatio="xMidYMid meet">

<g transform="translate(0.000000,211.000000) scale(0.100000,-0.100000)"
fill="#e4f5f5" stroke="none">
<path d="M129 1959 l-15 -92 53 -316 c29 -174 53 -321 53 -328 0 -6 -10 -13
-22 -15 -15 -2 -23 -10 -23 -23 0 -17 6 -19 33 -17 27 3 32 0 32 -18 0 -11
-10 -34 -22 -50 -18 -25 -20 -33 -9 -56 6 -14 20 -28 31 -31 23 -6 40 -55 22
-61 -7 -2 -12 -10 -12 -17 0 -13 45 -12 88 1 17 5 15 24 -3 24 -10 0 -15 10
-15 33 0 32 3 35 56 53 71 24 79 34 64 78 -18 55 -32 62 -86 41 -39 -15 -48
-15 -55 -4 -6 11 0 16 27 23 43 10 45 43 2 38 -31 -3 -26 -30 -68 373 l-31
290 -39 83 c-21 45 -41 82 -42 82 -2 0 -11 -41 -19 -91z"/>
<path d="M793 1941 l6 -70 -33 -11 c-41 -13 -94 -64 -103 -98 -3 -15 -1 -50 5
-80 7 -35 8 -62 2 -78 -6 -16 -7 -32 -1 -43 12 -22 88 -91 100 -91 6 0 9 36 8
82 l-2 81 -37 15 c-25 10 -38 21 -38 34 0 22 -4 22 53 2 45 -15 47 -18 47 -54
0 -36 20 -67 33 -53 4 3 7 25 7 48 0 40 2 42 41 54 23 7 47 15 55 18 8 3 14
-1 14 -11 0 -8 -18 -25 -40 -36 l-40 -20 0 -80 c0 -44 4 -80 9 -80 4 0 29 20
55 44 46 42 47 45 41 87 -3 24 -2 65 4 92 9 37 8 54 -3 81 -15 35 -65 79 -105
91 -22 7 -23 10 -19 76 l5 69 -35 0 -35 0 6 -69z"/>
<path d="M799 1545 c-1 -5 -2 -29 -4 -53 -1 -23 -5 -45 -8 -49 -4 -3 -21 4
-39 15 l-32 20 -11 -21 c-8 -17 -7 -33 7 -70 27 -72 25 -82 -31 -106 -27 -11
-54 -21 -60 -21 -15 0 -14 -21 4 -63 9 -21 15 -67 15 -107 l0 -70 145 0 c80 0
148 0 152 -1 7 -1 83 170 97 216 5 18 -1 23 -37 32 -24 7 -54 20 -66 30 l-23
19 20 58 c16 46 17 63 8 80 -11 22 -12 22 -40 5 -17 -10 -33 -16 -38 -13 -4 3
-8 29 -8 59 0 50 -1 53 -25 51 -14 0 -25 -5 -26 -11z"/>
<path d="M590 1451 c-31 -9 -36 -37 -16 -86 22 -52 19 -67 -4 -25 -11 19 -19
45 -20 58 0 35 -20 26 -20 -10 0 -43 37 -118 58 -117 10 0 40 9 67 18 45 17
50 21 49 48 -1 16 -11 51 -22 76 -22 49 -34 54 -92 38z"/>
<path d="M962 1408 c-33 -82 -32 -90 10 -110 21 -10 52 -19 70 -20 29 -3 35 1
50 32 20 41 30 88 20 94 -4 2 -16 -16 -26 -40 -10 -24 -22 -44 -27 -44 -4 0 3
23 16 52 13 28 22 55 19 59 -5 9 -71 29 -95 29 -11 0 -24 -19 -37 -52z"/>
<path d="M492 1296 c-12 -25 -22 -53 -22 -61 0 -8 -9 -24 -20 -35 -17 -17 -18
-22 -5 -47 8 -15 15 -36 15 -46 0 -14 5 -17 23 -12 46 14 70 40 84 94 12 50
12 56 -6 75 -10 12 -25 34 -33 50 l-15 28 -21 -46z"/>
<path d="M1110 1300 c-7 -17 -22 -37 -33 -45 -12 -8 -18 -17 -15 -21 4 -3 27
8 52 26 39 28 43 35 33 51 -16 26 -23 24 -37 -11z"/>
<path d="M1235 1296 c-110 -35 -190 -104 -239 -206 -28 -58 -31 -74 -31 -155
1 -69 6 -103 23 -146 24 -61 88 -143 104 -133 18 12 86 5 117 -11 17 -8 40
-34 52 -57 l21 -41 71 6 c151 11 266 87 329 215 30 61 33 74 33 162 0 87 -3
101 -32 160 -17 36 -41 76 -52 88 -19 22 -24 23 -56 12 -72 -24 -140 9 -169
80 l-16 40 -57 -1 c-32 0 -76 -6 -98 -13z m158 -177 c44 -12 102 -60 124 -103
39 -75 12 -181 -61 -240 -50 -41 -142 -49 -204 -17 -150 77 -135 299 24 356
48 17 68 18 117 4z"/>
<path d="M1315 1093 c-83 -17 -135 -77 -135 -156 0 -130 130 -208 242 -145
102 58 106 216 7 275 -37 22 -82 32 -114 26z"/>
<path d="M642 988 c2 -6 37 -23 77 -36 90 -30 87 -41 -4 -13 -75 23 -85 25
-85 12 0 -4 28 -19 63 -31 34 -13 57 -25 51 -27 -6 -2 -35 6 -64 17 -29 11
-54 19 -55 18 -6 -6 -35 -112 -31 -115 1 -2 54 -41 116 -88 69 -52 117 -82
124 -77 39 30 141 106 143 107 1 0 -7 29 -17 64 -11 34 -20 89 -20 122 l0 59
-151 0 c-112 0 -150 -3 -147 -12z"/>
<path d="M626 748 c-2 -7 -9 -65 -15 -128 -7 -63 -14 -127 -17 -141 -5 -26 -4
-27 63 -31 37 -3 75 -8 84 -12 14 -6 18 3 23 61 4 37 9 86 12 109 6 40 5 41
-52 85 -98 75 -94 72 -98 57z"/>
<path d="M926 694 l-59 -46 7 -87 c11 -129 12 -131 49 -120 18 5 53 9 79 9 55
0 53 -9 37 128 -7 62 -18 109 -31 130 -11 17 -20 32 -21 32 -1 0 -28 -21 -61
-46z"/>
<path d="M582 417 c-6 -6 -18 -76 -27 -154 -19 -165 -14 -186 48 -216 36 -18
38 -18 75 0 20 10 42 29 49 43 13 29 44 285 37 305 -12 31 -159 50 -182 22z
m10 -139 c-14 -109 -18 -126 -25 -117 -7 7 26 238 33 234 4 -2 0 -55 -8 -117z"/>
<path d="M908 414 c-20 -10 -28 -22 -28 -42 0 -42 28 -265 35 -284 20 -52 115
-65 159 -22 21 22 26 36 26 78 -1 92 -27 268 -41 277 -22 14 -122 9 -151 -7z
m22 -136 c6 -57 14 -111 16 -120 3 -10 1 -18 -4 -18 -10 0 -17 43 -28 168 -10
109 2 86 16 -30z"/>
</g>
</svg>
