<?xml version="1.0" standalone="no"?>
<!DOCTYPE svg PUBLIC "-//W3C//DTD SVG 20010904//EN"
 "http://www.w3.org/TR/2001/REC-SVG-20010904/DTD/svg10.dtd">
<svg version="1.0" xmlns="http://www.w3.org/2000/svg"
 width="101.000000pt" height="192.000000pt" viewBox="0 0 101.000000 192.000000"
 preserveAspectRatio="xMidYMid meet">

<g transform="translate(0.000000,192.000000) scale(0.100000,-0.100000)"
fill="#e4f5f5" stroke="none">
<path d="M223 1857 c-10 -13 -26 -26 -35 -29 -9 -4 -21 -16 -27 -27 -17 -32
14 -60 75 -67 48 -6 51 -5 57 17 11 39 8 104 -5 117 -19 19 -45 14 -65 -11z"/>
<path d="M253 1676 c4 -10 7 -22 7 -26 0 -14 60 -79 84 -92 11 -6 0 10 -26 35
-27 25 -48 55 -48 66 0 11 -5 23 -12 27 -8 5 -9 2 -5 -10z"/>
<path d="M510 1612 c-91 -48 -91 -190 -1 -237 81 -41 206 16 188 87 -3 11 -1
30 5 43 22 49 -56 125 -129 125 -15 0 -44 -8 -63 -18z"/>
<path d="M722 1582 c-9 -6 -10 -16 -1 -40 11 -31 19 -37 48 -32 8 1 29 -1 48
-5 40 -7 43 -26 9 -76 -21 -30 -23 -42 -17 -94 l6 -60 41 55 c57 75 74 112 74
157 -1 47 -16 68 -63 88 -39 16 -124 20 -145 7z"/>
<path d="M715 1480 c3 -5 10 -10 16 -10 5 0 9 5 9 10 0 6 -7 10 -16 10 -8 0
-12 -4 -9 -10z"/>
<path d="M707 1415 c-13 -26 -13 -31 1 -41 14 -10 13 -16 -6 -62 -47 -109 -18
-225 63 -252 38 -13 73 -2 37 11 -27 10 -41 62 -30 114 5 22 11 72 15 111 5
71 5 72 -29 110 l-35 38 -16 -29z"/>
<path d="M536 1304 c-65 -20 -125 -59 -136 -89 -17 -46 -41 -267 -43 -402 -2
-119 0 -137 16 -147 12 -8 22 -8 35 0 14 9 18 32 24 120 11 169 29 338 37 347
10 10 54 -85 54 -120 0 -15 -12 -68 -27 -118 -15 -49 -29 -117 -33 -150 -4
-40 -39 -149 -105 -328 -62 -168 -97 -276 -93 -288 16 -48 92 -62 114 -21 5
10 51 130 101 267 116 316 116 315 136 315 9 0 34 -17 55 -39 37 -36 39 -42
39 -99 0 -33 -4 -72 -10 -87 -7 -19 -7 -24 2 -19 8 5 10 -34 5 -159 -6 -156
-5 -167 14 -191 23 -29 55 -33 85 -12 22 17 31 113 33 356 1 100 6 161 17 195
19 61 20 160 4 211 -18 54 -89 194 -98 194 -5 0 14 -46 42 -102 49 -100 51
-106 50 -188 0 -67 -5 -95 -23 -131 -22 -46 -86 -129 -100 -129 -3 0 -5 18 -3
40 5 54 -3 82 -35 121 -33 39 -89 65 -162 74 l-53 7 5 42 c3 22 18 80 32 129
29 101 30 125 10 174 -21 49 -19 53 15 53 16 0 49 10 74 21 43 21 44 23 49 78
2 31 8 64 12 74 6 15 1 17 -41 16 -27 0 -71 -7 -98 -15z"/>
<path d="M526 873 c-10 -43 -20 -87 -23 -98 -3 -11 -3 -17 1 -14 9 8 53 189
46 189 -4 0 -14 -35 -24 -77z"/>
</g>
</svg>
