<?xml version="1.0" standalone="no"?>
<!DOCTYPE svg PUBLIC "-//W3C//DTD SVG 20010904//EN"
 "http://www.w3.org/TR/2001/REC-SVG-20010904/DTD/svg10.dtd">
<svg version="1.0" xmlns="http://www.w3.org/2000/svg"
 width="88.000000pt" height="169.000000pt" viewBox="0 0 88.000000 169.000000"
 preserveAspectRatio="xMidYMid meet">

<g transform="translate(0.000000,169.000000) scale(0.100000,-0.100000)"
fill="#e4f5f5" stroke="none">
<path d="M494 1634 c3 -9 6 -18 6 -20 0 -2 9 -4 20 -4 27 0 70 -67 80 -127 4
-26 8 -41 9 -33 0 8 10 21 21 28 26 16 26 36 0 29 -26 -7 -35 9 -16 29 9 8 16
19 16 24 0 15 -24 24 -28 12 -9 -27 -22 -10 -17 22 8 38 -8 56 -24 29 -9 -17
-11 -16 -26 5 -19 26 -50 31 -41 6z"/>
<path d="M362 1603 c-91 -45 -107 -166 -32 -238 23 -22 42 -29 83 -33 65 -5
106 13 136 61 76 124 -58 274 -187 210z"/>
<path d="M473 1293 c-18 -7 -16 -40 2 -50 12 -7 6 -19 -31 -61 -43 -49 -44
-52 -21 -52 17 0 32 11 51 40 14 22 29 40 32 40 11 0 109 -33 119 -40 6 -4 23
-10 38 -14 29 -7 29 -7 22 -67 -7 -56 -6 -61 11 -57 16 3 19 12 16 61 -3 55
-2 57 21 57 25 0 37 15 30 38 -7 19 -40 14 -56 -9 l-15 -21 -92 33 c-85 31
-91 35 -85 57 3 13 1 30 -6 38 -12 15 -16 16 -36 7z"/>
<path d="M276 1279 c-79 -13 -150 -129 -163 -264 -9 -102 5 -105 226 -35 118
37 131 43 137 67 9 33 -6 57 -38 61 -14 2 -67 -11 -118 -27 -52 -17 -96 -29
-98 -27 -1 2 4 19 12 37 13 30 14 31 15 10 1 -15 6 -21 15 -18 8 3 34 11 57
18 24 7 48 19 53 27 5 8 24 31 42 52 28 31 32 42 28 72 l-6 35 -62 -1 c-33 0
-79 -3 -100 -7z"/>
<path d="M541 1258 c0 -31 1 -32 11 -10 15 30 36 28 40 -5 2 -23 11 -31 45
-43 32 -10 46 -11 54 -3 8 8 0 19 -32 40 -24 15 -48 33 -52 40 -4 7 -21 13
-37 13 -27 0 -30 -3 -29 -32z"/>
<path d="M739 1118 c0 -7 -1 -33 -2 -57 l-2 -45 -82 -16 c-92 -18 -133 -45
-133 -90 0 -47 45 -67 80 -35 9 9 54 22 100 30 151 27 170 64 93 188 -23 36
-52 50 -54 25z"/>
<path d="M407 983 c-10 -3 -16 -10 -14 -16 3 -11 98 -80 102 -75 1 2 5 17 8
34 5 26 2 33 -23 47 -28 17 -40 19 -73 10z"/>
<path d="M303 951 c-51 -15 -53 -17 -53 -51 0 -21 -26 -97 -65 -188 -36 -84
-65 -155 -65 -157 0 -3 6 -5 14 -5 22 0 27 -15 16 -44 -6 -16 -6 -35 -1 -49 5
-13 61 -89 125 -170 79 -101 116 -155 116 -173 0 -29 17 -64 39 -81 26 -20 32
-15 14 13 -14 22 -17 48 -15 156 2 142 2 142 -66 229 -25 33 -43 61 -41 63 2
2 30 7 62 10 l57 7 0 -205 c0 -117 4 -216 10 -232 21 -55 77 -70 124 -33 l26
20 0 244 0 244 35 7 c19 3 35 12 35 18 0 19 -39 229 -49 261 l-9 30 -1 -30 c0
-16 8 -70 18 -118 12 -61 14 -90 7 -92 -6 -2 -74 -17 -151 -32 l-140 -29 -90
22 c-63 15 -89 26 -87 35 1 8 22 61 45 118 37 90 46 105 77 121 48 25 94 75
87 94 -7 19 -6 19 -74 -3z m347 -360 c0 -13 -9 -20 -30 -23 -16 -3 -30 -3 -30
-2 0 1 -3 9 -6 17 -4 11 2 17 18 20 43 8 48 7 48 -12z m-457 -7 c13 -13 -5
-31 -29 -26 -24 4 -30 13 -17 25 8 9 38 9 46 1z m372 -14 c0 -9 -11 -16 -27
-18 -20 -2 -28 1 -28 12 0 8 6 17 13 19 21 9 42 2 42 -13z m-323 2 c12 -5 14
-11 9 -21 -11 -17 -41 -7 -41 14 0 16 5 17 32 7z m253 -13 c9 -13 6 -15 -32
-24 -29 -6 -33 -4 -33 14 0 17 6 21 29 21 17 0 33 -5 36 -11z m-171 -5 c22 -9
20 -34 -3 -34 -30 0 -51 11 -51 26 0 15 27 18 54 8z m89 -8 c8 -19 -1 -26 -35
-26 -32 0 -37 14 -10 29 24 14 39 13 45 -3z"/>
</g>
</svg>
