<?xml version="1.0" standalone="no"?>
<!DOCTYPE svg PUBLIC "-//W3C//DTD SVG 20010904//EN"
 "http://www.w3.org/TR/2001/REC-SVG-20010904/DTD/svg10.dtd">
<svg version="1.0" xmlns="http://www.w3.org/2000/svg"
 width="165.000000pt" height="248.000000pt" viewBox="0 0 165.000000 248.000000"
 preserveAspectRatio="xMidYMid meet">

<g transform="translate(0.000000,248.000000) scale(0.100000,-0.100000)"
fill="#e4f5f5" stroke="none">
<path d="M116 2405 c-11 -30 -6 -88 18 -228 l24 -138 -24 -56 c-24 -54 -45
-127 -58 -201 -5 -30 -4 -33 14 -27 17 5 20 2 20 -25 0 -25 3 -31 16 -26 9 3
19 6 22 6 4 0 5 41 3 91 -3 95 6 199 17 199 4 0 39 -199 78 -442 65 -406 69
-445 56 -468 -18 -32 -10 -76 16 -84 17 -6 52 -199 150 -833 11 -71 20 -103
29 -103 18 0 17 14 -22 258 -61 375 -105 652 -105 665 0 7 36 25 80 42 88 32
96 45 65 105 -19 36 -29 37 -106 5 -42 -17 -61 -21 -64 -12 -2 7 -13 75 -25
152 -12 77 -43 275 -70 440 -26 165 -48 318 -48 340 0 72 -42 298 -61 328 -15
24 -19 26 -25 12z"/>
<path d="M802 1952 c-21 -6 -22 -9 -8 -27 16 -21 21 -45 9 -45 -5 0 -16 14
-26 32 -13 23 -21 28 -29 20 -9 -9 -6 -18 11 -36 13 -14 18 -26 13 -30 -6 -3
-21 7 -34 24 l-23 30 -34 -21 -34 -21 51 -51 51 -51 23 21 c37 33 63 43 115
43 64 -1 128 -31 153 -72 23 -39 26 -114 6 -171 -10 -28 -11 -48 -4 -80 14
-56 20 -61 60 -48 l33 11 3 152 c3 175 -7 217 -64 267 -56 50 -190 76 -272 53z"/>
<path d="M813 1790 c-43 -26 -58 -53 -72 -130 -7 -36 -15 -76 -18 -89 -5 -21
-3 -22 18 -16 29 9 39 22 39 52 0 17 13 29 51 48 l51 26 -7 -23 c-4 -13 -16
-31 -28 -40 -12 -10 -27 -22 -33 -27 -11 -9 -29 -99 -22 -106 2 -2 23 1 48 5
25 5 75 9 112 10 l68 0 -10 26 c-7 19 -6 40 5 77 17 59 19 120 5 148 -29 53
-148 76 -207 39z"/>
<path d="M1125 1457 c-62 -21 -104 -45 -152 -90 -200 -184 -145 -509 105 -625
49 -23 71 -27 152 -27 83 0 102 3 155 28 148 69 232 208 223 366 -12 201 -163
350 -363 358 -48 2 -96 -2 -120 -10z m196 -193 c40 -20 87 -79 99 -125 37
-138 -93 -273 -229 -239 -94 23 -151 96 -151 191 0 62 22 112 66 147 63 50
148 61 215 26z"/>
<path d="M1170 1242 c-90 -40 -129 -156 -77 -233 69 -103 209 -107 274 -8 71
108 -4 250 -131 248 -28 0 -58 -3 -66 -7z"/>
<path d="M690 1419 c-36 -12 -68 -24 -72 -27 -4 -4 15 -56 42 -115 47 -100 50
-113 50 -187 l0 -80 65 0 64 0 -6 48 c-7 60 12 152 44 217 14 28 52 76 86 108
l60 57 -134 -1 c-106 0 -148 -4 -199 -20z m90 -24 c0 -8 -7 -15 -15 -15 -8 0
-15 7 -15 15 0 8 7 15 15 15 8 0 15 -7 15 -15z m30 -60 c0 -8 -7 -15 -15 -15
-8 0 -15 7 -15 15 0 8 7 15 15 15 8 0 15 -7 15 -15z m56 -16 c10 -17 -13 -36
-27 -22 -12 12 -4 33 11 33 5 0 12 -5 16 -11z"/>
<path d="M581 1303 c-10 -21 -22 -53 -26 -71 -4 -18 -15 -38 -25 -45 -13 -7
-16 -15 -9 -23 5 -6 15 -27 22 -47 l12 -36 41 18 c37 17 41 23 53 75 12 53 11
62 -9 112 -12 30 -26 54 -31 54 -5 0 -17 -17 -28 -37z"/>
<path d="M705 968 c-10 -50 -45 -311 -41 -315 22 -22 385 -28 439 -8 9 4 17
17 17 31 0 18 -14 30 -70 60 -42 22 -88 56 -111 83 -43 48 -89 129 -89 156 0
12 -14 15 -70 15 -64 0 -70 -2 -75 -22z"/>
<path d="M676 570 c-4 -30 -9 -71 -12 -91 l-5 -36 60 -1 c33 0 69 -6 80 -11
11 -6 22 -8 24 -4 3 5 8 47 12 96 7 87 7 87 -16 88 -13 0 -49 4 -81 8 l-56 7
-6 -56z"/>
<path d="M1085 624 c-5 -1 -41 -5 -79 -9 l-68 -7 7 -76 c9 -107 12 -115 37
-101 11 6 47 11 80 12 l59 0 -7 61 c-9 88 -18 123 -29 120z"/>
<path d="M680 423 c-14 -3 -28 -8 -32 -11 -12 -11 -40 -274 -33 -309 16 -88
151 -99 183 -15 11 28 32 205 32 271 0 33 -4 40 -27 49 -36 14 -92 20 -123 15z
m10 -118 c0 -8 -7 -15 -15 -15 -16 0 -20 12 -8 23 11 12 23 8 23 -8z m-4 -56
c3 -6 2 -15 -2 -19 -12 -12 -38 5 -30 19 9 14 23 14 32 0z"/>
<path d="M1018 420 c-74 -14 -78 -29 -54 -225 13 -102 16 -111 45 -137 43 -39
92 -38 132 1 20 21 29 39 29 63 0 57 -29 281 -37 289 -13 12 -76 17 -115 9z
m100 -118 c2 -7 -3 -12 -12 -12 -9 0 -16 7 -16 16 0 17 22 14 28 -4z m8 -53
c8 -14 -18 -31 -30 -19 -9 9 0 30 14 30 5 0 12 -5 16 -11z"/>
</g>
</svg>
