<?xml version="1.0" standalone="no"?>
<!DOCTYPE svg PUBLIC "-//W3C//DTD SVG 20010904//EN"
 "http://www.w3.org/TR/2001/REC-SVG-20010904/DTD/svg10.dtd">
<svg version="1.0" xmlns="http://www.w3.org/2000/svg"
 width="130.000000pt" height="181.000000pt" viewBox="0 0 130.000000 181.000000"
 preserveAspectRatio="xMidYMid meet">

<g transform="translate(0.000000,181.000000) scale(0.100000,-0.100000)"
fill="#000000" stroke="none">
<path d="M300 1710 c0 -11 7 -20 15 -20 24 0 18 -26 -19 -83 -70 -105 -110
-285 -105 -467 1 -52 -1 -103 -5 -112 -5 -10 -1 -29 7 -45 9 -15 21 -57 27
-93 30 -168 105 -330 199 -429 55 -58 57 -62 38 -91 -10 -17 -9 -22 3 -30 10
-6 19 -5 28 3 10 11 9 22 -4 58 -13 35 -73 488 -74 562 0 14 9 17 44 17 43 0
47 3 120 82 41 46 77 80 80 77 3 -2 10 -38 17 -78 11 -77 6 -132 -16 -164 -7
-11 -11 -25 -9 -32 3 -7 1 -30 -5 -51 -19 -74 -41 -245 -35 -287 3 -23 -4
-123 -14 -222 -21 -187 -19 -205 19 -226 25 -13 76 4 84 30 3 12 45 366 45
387 0 2 33 4 73 4 l74 0 17 -173 c23 -223 22 -219 47 -239 29 -24 54 -23 79 4
25 27 25 45 1 263 -12 108 -16 174 -10 182 6 7 6 36 -1 80 -25 165 -43 261
-56 295 -23 63 -21 156 4 212 l22 49 68 -8 c37 -5 90 -9 117 -9 45 -1 50 1 53
23 5 31 -67 322 -84 342 -12 13 -10 21 12 52 16 24 23 45 19 57 -11 33 -41 7
-54 -47 -7 -26 -18 -55 -25 -63 -15 -17 -30 -84 -18 -76 8 5 53 -162 52 -192
0 -11 -12 -12 -52 -7 -66 9 -70 12 -58 36 8 13 7 19 0 19 -6 0 4 27 21 61 16
34 29 63 26 65 -2 2 -16 -23 -32 -56 -16 -33 -32 -60 -36 -60 -13 0 -20 18 -9
25 21 13 50 84 42 104 -13 35 -42 1 -49 -58 -3 -28 -10 -51 -14 -51 -5 0 -16
-14 -24 -31 l-16 -31 -117 3 c-64 2 -128 -1 -142 -5 -14 -5 -67 -53 -119 -107
-75 -79 -100 -99 -122 -99 -24 0 -29 5 -33 33 -15 91 -56 506 -56 567 0 63 -2
70 -20 70 -13 0 -20 -7 -20 -20z m30 0 c0 -5 -4 -10 -10 -10 -5 0 -10 5 -10
10 0 6 5 10 10 10 6 0 10 -4 10 -10z m25 -380 l31 -268 -81 -4 c-44 -3 -82 -3
-85 0 -14 11 -3 272 14 347 19 83 73 211 85 200 3 -4 20 -127 36 -275z m371
-112 c45 -72 104 -146 132 -164 16 -10 3 8 -30 45 -60 65 -115 148 -104 158 3
4 7 4 9 2 54 -73 142 -181 166 -203 20 -19 31 -40 31 -56 0 -15 7 -49 15 -75
8 -27 13 -50 12 -52 -9 -8 -175 -14 -230 -9 l-67 8 16 31 c19 36 15 165 -9
275 -14 66 -13 70 30 81 2 1 15 -18 29 -41z m-302 -502 c15 -136 25 -250 23
-252 -2 -3 -21 14 -42 37 -69 77 -145 266 -170 426 l-7 42 79 3 c43 2 81 1 84
-2 3 -3 18 -117 33 -254z m551 68 c10 -41 14 -78 10 -82 -9 -9 -315 -9 -336 0
-15 6 -15 13 -1 77 9 39 19 71 24 71 8 0 6 -17 -12 -88 -5 -18 -5 -30 0 -27 4
3 11 22 14 42 14 78 5 73 136 73 l119 0 10 -37 c6 -21 11 -46 11 -55 0 -10 4
-18 9 -18 6 0 6 13 1 33 -18 71 -20 87 -11 87 5 0 17 -34 26 -76z m-328 -156
l-6 -63 10 55 11 55 148 0 148 0 10 -50 11 -50 -5 51 c-7 69 11 79 25 14 18
-82 16 -88 -28 -100 -129 -34 -187 -35 -304 -3 -44 12 -56 20 -53 32 3 9 8 36
11 61 4 25 9 48 12 53 11 19 15 2 10 -55z m-167 -268 c0 -5 -4 -10 -10 -10 -5
0 -10 5 -10 10 0 6 5 10 10 10 6 0 10 -4 10 -10z"/>
<path d="M868 1629 c-25 -14 -22 -26 6 -33 13 -3 37 -21 54 -40 34 -39 42 -37
42 10 0 53 -58 89 -102 63z"/>
<path d="M751 1572 c-52 -26 -75 -63 -75 -120 0 -109 105 -173 202 -123 97 50
97 198 -1 244 -45 22 -83 21 -126 -1z"/>
</g>
</svg>
