<?xml version="1.0" standalone="no"?>
<!DOCTYPE svg PUBLIC "-//W3C//DTD SVG 20010904//EN"
 "http://www.w3.org/TR/2001/REC-SVG-20010904/DTD/svg10.dtd">
<svg version="1.0" xmlns="http://www.w3.org/2000/svg"
 width="113.000000pt" height="210.000000pt" viewBox="0 0 113.000000 210.000000"
 preserveAspectRatio="xMidYMid meet">

<g transform="translate(0.000000,210.000000) scale(0.100000,-0.100000)"
fill="#e4f5f5" stroke="none">
<path d="M130 1951 c0 -62 9 -169 20 -239 10 -70 33 -273 50 -452 25 -264 30
-347 24 -446 -6 -114 -5 -122 13 -135 17 -12 22 -36 36 -176 10 -102 12 -175
7 -199 -6 -26 -5 -43 3 -52 11 -14 11 -71 1 -124 -4 -21 1 -34 20 -53 52 -52
105 -20 115 70 l6 60 103 1 102 1 0 -43 c0 -80 34 -123 86 -110 43 11 55 43
45 122 -6 52 -5 71 5 79 10 8 8 31 -7 114 -10 57 -21 106 -24 109 -14 14 -13
-14 4 -107 13 -74 15 -104 7 -106 -61 -21 -155 -37 -216 -38 -83 -1 -219 28
-227 49 -5 15 28 227 34 220 3 -3 -1 -46 -7 -96 -7 -50 -10 -93 -8 -96 3 -3
11 35 18 83 16 121 9 113 77 97 32 -8 79 -14 104 -14 63 0 162 21 151 32 -5 5
-27 5 -53 -1 -63 -15 -144 -12 -219 7 l-65 17 3 54 c2 30 7 62 13 70 6 11 8
-5 4 -49 -4 -45 -2 -59 4 -45 5 11 10 37 10 59 l1 39 85 -7 c47 -4 85 -3 85 2
0 5 -41 13 -90 19 -50 6 -93 13 -96 16 -4 3 1 32 9 64 l16 58 -4 -55 -4 -55
15 63 16 62 59 0 c33 0 59 4 59 10 0 6 -28 10 -64 10 -36 0 -67 4 -70 8 -3 5
2 29 11 54 16 42 15 53 -4 179 -22 133 -20 149 12 148 6 0 28 -29 50 -65 39
-63 135 -168 135 -148 0 5 -18 28 -40 49 -43 42 -126 162 -118 170 3 3 28 -25
56 -62 28 -38 70 -90 94 -117 39 -44 46 -48 65 -38 12 7 25 26 29 44 6 32 7
32 15 10 7 -17 14 -22 29 -18 69 20 67 11 33 104 -15 40 -52 72 -83 72 -19 0
-10 -49 11 -64 25 -17 17 -36 -16 -36 -35 0 -85 49 -94 90 l-7 35 -64 0 c-141
0 -180 -26 -217 -143 -14 -45 -27 -81 -28 -80 -7 6 -55 551 -60 668 -5 121
-39 335 -56 355 -5 5 -9 -40 -9 -104z m256 -949 c5 -49 2 -73 -12 -110 -10
-26 -17 -50 -16 -54 1 -4 -5 -40 -13 -80 -8 -40 -20 -109 -27 -153 -12 -79
-12 -80 -21 -40 -9 40 -7 61 13 250 14 128 49 282 61 264 4 -7 11 -42 15 -77z
m-79 -514 c-3 -7 -5 -2 -5 12 0 14 2 19 5 13 2 -7 2 -19 0 -25z"/>
<path d="M487 1703 c-4 -4 -5 -21 -1 -39 5 -28 1 -35 -34 -64 -42 -34 -65 -78
-34 -65 32 13 147 17 185 7 50 -14 49 2 -3 53 -33 32 -40 46 -40 77 0 36 -1
38 -33 38 -19 0 -37 -3 -40 -7z"/>
<path d="M406 1651 c-8 -13 11 -51 25 -51 6 0 8 9 4 23 -10 30 -21 41 -29 28z"/>
<path d="M622 1635 c-17 -37 -3 -55 15 -20 9 16 11 31 6 36 -6 6 -14 -1 -21
-16z"/>
<path d="M365 1570 c20 -22 31 -20 22 5 -4 8 -14 15 -23 15 -16 0 -16 -2 1
-20z"/>
<path d="M660 1575 c-22 -27 -5 -37 19 -11 19 20 21 26 9 26 -9 0 -21 -7 -28
-15z"/>
<path d="M480 1533 c-43 -7 -78 -24 -84 -40 -5 -12 -2 -13 11 -7 30 13 181 17
213 6 24 -9 30 -8 30 4 0 8 -10 18 -22 23 -31 11 -117 20 -148 14z"/>
<path d="M436 1476 c-48 -18 -58 -32 -50 -71 28 -135 207 -156 267 -32 36 73
3 106 -113 113 -41 3 -79 -1 -104 -10z"/>
<path d="M641 1326 c-13 -14 -32 -28 -43 -32 -13 -4 -18 -15 -18 -40 0 -66 42
-114 98 -114 13 0 12 3 -6 16 -25 17 -29 58 -11 129 15 59 9 72 -20 41z"/>
<path d="M740 1041 c-47 -15 -85 -39 -122 -78 -85 -88 -103 -210 -47 -321 51
-102 134 -152 255 -152 106 0 203 61 249 155 27 57 32 164 10 222 -22 57 -85
128 -140 155 -44 23 -161 34 -205 19z m150 -146 c46 -24 72 -69 73 -126 1 -83
-59 -143 -143 -143 -110 0 -177 113 -126 212 33 65 128 92 196 57z"/>
<path d="M758 874 c-77 -41 -75 -169 2 -209 84 -43 180 13 180 105 0 92 -99
149 -182 104z"/>
<path d="M694 468 c3 -13 10 -56 17 -96 6 -40 13 -71 16 -68 8 8 -19 186 -29
186 -4 0 -6 -10 -4 -22z"/>
</g>
</svg>
