<?xml version="1.0" standalone="no"?>
<!DOCTYPE svg PUBLIC "-//W3C//DTD SVG 20010904//EN"
 "http://www.w3.org/TR/2001/REC-SVG-20010904/DTD/svg10.dtd">
<svg version="1.0" xmlns="http://www.w3.org/2000/svg"
 width="98.000000pt" height="144.000000pt" viewBox="0 0 98.000000 144.000000"
 preserveAspectRatio="xMidYMid meet">

<g transform="translate(0.000000,144.000000) scale(0.100000,-0.100000)"
fill="#000000" stroke="none">
<path d="M176 1301 c-3 -4 0 -33 6 -64 13 -63 3 -87 -38 -87 -27 0 -41 21 -50
77 -8 54 -18 68 -40 58 -18 -8 -18 -8 -1 -12 14 -4 17 -15 17 -59 0 -45 4 -59
25 -79 13 -14 28 -25 33 -25 5 0 14 -12 20 -27 17 -45 83 -423 76 -434 -3 -6
1 -27 9 -47 9 -21 37 -152 62 -292 26 -140 48 -257 51 -259 18 -18 11 43 -29
267 -26 141 -47 262 -47 269 0 6 36 24 80 39 78 28 81 30 91 69 22 83 28 81
28 -7 l1 -88 120 0 120 0 0 99 c0 55 4 102 9 105 12 8 40 -36 47 -74 15 -72
53 -63 127 30 67 84 80 126 47 152 -26 21 -39 20 -54 -5 -8 -12 -7 -22 2 -37
16 -25 15 -31 -2 -24 -8 3 -23 -8 -36 -26 l-22 -31 -19 30 c-10 16 -29 37 -43
46 -33 22 -55 10 -123 -64 l-52 -56 -59 63 c-33 34 -66 62 -75 62 -23 0 -55
-47 -73 -106 -15 -51 -17 -54 -71 -74 -31 -11 -57 -19 -58 -18 -2 3 -16 75
-36 183 -5 28 -16 85 -24 127 -20 103 -19 131 5 153 24 22 26 62 5 112 -11 27
-12 39 -4 49 9 11 8 14 -4 14 -9 0 -18 -4 -21 -9z"/>
<path d="M499 1141 c-27 -27 -40 -73 -54 -188 -6 -48 -5 -53 19 -69 15 -9 30
-14 33 -10 4 4 7 50 8 104 l0 97 43 15 c37 13 47 13 85 0 l42 -15 1 -98 c0
-53 3 -100 6 -102 3 -3 18 0 33 7 27 12 27 13 20 80 -9 96 -31 163 -60 186
-19 15 -41 20 -87 20 -54 0 -65 -3 -89 -27z"/>
<path d="M525 1064 c-17 -17 -13 -61 9 -96 13 -22 22 -23 30 -3 7 21 43 19 55
-2 10 -17 12 -17 26 1 8 11 18 35 21 54 5 28 3 38 -11 49 -27 19 -110 17 -130
-3z"/>
<path d="M577 964 c-14 -15 -6 -34 14 -34 14 0 19 5 17 17 -3 18 -20 27 -31
17z"/>
<path d="M520 896 c0 -50 4 -60 34 -94 l35 -37 31 30 c41 38 52 67 44 116 -6
33 -9 37 -21 27 -8 -6 -13 -22 -10 -35 2 -13 0 -23 -4 -23 -5 0 -9 9 -9 20 0
16 -7 20 -30 20 -24 0 -30 -4 -31 -22 -1 -15 -4 -11 -8 11 -10 59 -31 50 -31
-13z"/>
<path d="M446 522 c-14 -58 -36 -204 -36 -234 0 -16 69 0 124 30 73 40 151
149 170 238 l7 31 -125 0 -124 1 -16 -66z m20 -64 c-9 -50 -16 -104 -16 -120
0 -15 -5 -28 -10 -28 -7 0 -9 13 -6 33 3 17 12 74 21 125 8 50 15 95 16 100 0
4 3 1 6 -5 2 -7 -3 -54 -11 -105z"/>
<path d="M684 470 l-31 -66 20 -40 c23 -45 46 -74 60 -74 11 0 2 176 -11 221
-6 23 -10 19 -38 -41z"/>
<path d="M625 371 c-6 -21 12 -271 22 -297 10 -27 52 -37 81 -18 24 16 25 18
18 111 -6 88 -9 97 -34 118 -16 13 -37 42 -47 64 -20 45 -31 51 -40 22z"/>
<path d="M536 301 c-3 -4 -25 -14 -50 -21 l-44 -12 -7 -82 c-9 -104 -6 -118
28 -134 24 -12 31 -11 51 2 20 13 25 26 30 93 4 43 9 97 13 121 5 39 -6 57
-21 33z"/>
</g>
</svg>
