<?xml version="1.0" standalone="no"?>
<!DOCTYPE svg PUBLIC "-//W3C//DTD SVG 20010904//EN"
 "http://www.w3.org/TR/2001/REC-SVG-20010904/DTD/svg10.dtd">
<svg version="1.0" xmlns="http://www.w3.org/2000/svg"
 width="106.000000pt" height="171.000000pt" viewBox="0 0 106.000000 171.000000"
 preserveAspectRatio="xMidYMid meet">

<g transform="translate(0.000000,171.000000) scale(0.100000,-0.100000)"
fill="#e4f5f5" stroke="none">
<path d="M423 1580 c-18 -11 -33 -21 -33 -23 0 -2 25 1 55 6 37 7 73 7 110 0
30 -5 55 -8 55 -6 0 15 -73 43 -110 43 -27 0 -58 -8 -77 -20z"/>
<path d="M449 1539 c-85 -13 -85 -13 -92 -146 -6 -98 -10 -120 -24 -128 -50
-28 -100 -94 -121 -157 -26 -79 -46 -268 -39 -358 l6 -65 -40 -34 -40 -34 -23
22 c-29 27 -33 21 -37 -44 -3 -43 0 -51 19 -61 12 -6 30 -18 40 -27 17 -16 20
-15 42 8 23 24 23 25 4 46 -19 21 -19 21 20 54 24 20 46 31 58 27 25 -6 58 25
59 57 1 21 2 22 6 6 3 -11 10 -26 15 -32 7 -9 3 -101 -12 -282 -12 -149 -20
-280 -17 -293 7 -25 54 -58 82 -58 30 0 75 55 75 93 0 19 3 55 6 81 l7 47 61
-3 61 -3 6 -77 c4 -44 13 -88 22 -102 23 -35 72 -43 106 -19 35 27 37 71 12
363 -13 151 -17 238 -11 244 6 6 10 18 10 29 0 10 5 15 10 12 6 -3 10 -15 10
-25 0 -23 34 -43 58 -36 19 6 55 -22 95 -76 18 -23 24 -41 20 -60 -3 -18 1
-32 16 -47 25 -25 40 -26 66 -7 17 12 15 14 -21 12 -39 -1 -39 -1 -39 36 0 20
-3 40 -7 44 -14 14 -8 27 7 14 8 -6 23 -9 33 -6 41 14 71 -19 51 -56 -9 -16
-8 -19 3 -16 18 6 22 42 8 68 -9 16 -19 21 -44 19 -24 -2 -44 5 -75 28 -69 51
-70 53 -75 239 -3 134 -8 184 -25 243 -25 86 -68 153 -109 170 -26 11 -29 19
-41 86 -7 42 -9 84 -6 96 4 11 4 36 1 54 -6 28 -12 34 -49 43 -66 17 -99 19
-148 11z m87 -147 c6 -4 18 -20 26 -36 l15 -30 27 27 c29 29 26 32 40 -49 8
-51 -2 -69 -70 -118 -74 -55 -79 -55 -159 10 -53 43 -55 47 -55 92 0 26 3 57
6 70 l7 23 28 -27 c27 -25 29 -26 35 -8 17 46 66 69 100 46z m-210 -415 c1
-91 -3 -120 -18 -154 -11 -24 -22 -43 -25 -43 -3 0 -3 53 0 118 6 112 23 209
36 197 3 -4 6 -57 7 -118z m379 63 c7 -28 17 -93 21 -143 l7 -91 -24 16 c-23
15 -24 21 -27 149 -1 73 0 130 3 127 4 -3 12 -29 20 -58z m-303 -329 c-2 -31
-6 -58 -8 -60 -10 -11 -70 18 -80 38 -17 33 -7 63 16 51 10 -6 22 -10 27 -10
4 1 -4 8 -19 16 -16 8 -28 19 -28 24 0 14 12 12 38 -6 13 -9 26 -14 29 -11 2
3 -9 13 -26 22 -17 8 -31 22 -31 30 0 11 11 8 43 -12 l43 -26 -4 -56z m283 99
c3 -5 -9 -19 -27 -30 -34 -21 -32 -28 4 -9 30 16 36 0 8 -21 -14 -11 -20 -20
-13 -20 6 0 15 5 18 10 12 19 25 10 25 -17 0 -36 -9 -49 -43 -62 -52 -20 -57
-16 -57 48 0 56 1 59 38 84 44 31 40 29 47 17z m45 -56 c0 -14 -4 -22 -10 -19
-5 3 -10 17 -10 31 0 14 4 22 10 19 6 -3 10 -17 10 -31z m-150 9 c1 -5 7 -114
14 -243 8 -129 12 -238 9 -242 -2 -5 -49 -8 -104 -8 l-99 0 0 48 c0 26 5 138
12 250 l11 202 79 0 c43 0 78 -3 78 -7z"/>
<path d="M470 1350 c-15 -27 -5 -40 31 -40 33 0 48 22 29 45 -18 21 -47 19
-60 -5z"/>
<path d="M446 699 c-7 -50 -18 -374 -12 -368 6 6 26 392 20 398 -1 1 -5 -12
-8 -30z"/>
</g>
</svg>
