<?xml version="1.0" standalone="no"?>
<!DOCTYPE svg PUBLIC "-//W3C//DTD SVG 20010904//EN"
 "http://www.w3.org/TR/2001/REC-SVG-20010904/DTD/svg10.dtd">
<svg version="1.0" xmlns="http://www.w3.org/2000/svg"
 width="133.000000pt" height="216.000000pt" viewBox="0 0 133.000000 216.000000"
 preserveAspectRatio="xMidYMid meet">

<g transform="translate(0.000000,216.000000) scale(0.100000,-0.100000)"
fill="#e4f5f5" stroke="none">
<path d="M138 1993 c-48 -54 -84 -178 -75 -255 13 -110 90 -184 236 -227 l54
-17 48 -109 c35 -80 49 -123 49 -157 0 -46 1 -47 38 -57 20 -5 54 -12 75 -16
23 -4 37 -11 34 -18 -4 -14 -63 -15 -120 -4 -30 7 -38 5 -44 -9 -4 -10 0 -22
10 -29 14 -10 12 -26 -26 -156 -37 -124 -41 -149 -33 -182 8 -30 14 -37 28
-34 16 5 18 1 13 -26 -9 -58 -65 -553 -65 -581 0 -17 11 -39 29 -57 55 -54
150 -30 165 43 6 26 66 556 66 577 0 10 8 7 25 -9 21 -20 27 -21 42 -9 10 8
21 18 25 23 10 15 15 -18 48 -309 17 -148 33 -278 36 -287 9 -29 54 -58 91
-58 45 0 69 14 88 50 14 27 12 54 -20 332 -19 166 -35 305 -35 310 0 4 6 5 14
2 10 -4 18 6 26 34 11 35 8 52 -29 180 -35 120 -40 145 -29 161 20 32 -1 45
-48 32 -54 -15 -101 -14 -107 3 -4 10 13 17 66 27 l72 14 11 61 c6 33 30 106
54 161 42 97 46 102 80 108 96 17 193 84 233 160 39 75 18 235 -42 315 -21 29
-74 39 -98 19 -31 -27 -33 -56 -8 -112 50 -114 43 -170 -23 -181 -24 -3 -57
-20 -82 -41 l-42 -35 -111 -1 c-214 -1 -273 -1 -378 0 l-105 1 -38 34 c-26 24
-51 37 -82 42 -36 5 -45 11 -50 31 -9 34 3 98 26 144 11 21 20 50 20 64 0 54
-78 87 -112 48z m576 -854 c19 -15 26 -30 26 -54 0 -65 -83 -87 -123 -33 -17
23 -18 31 -8 56 12 27 41 50 67 51 6 1 23 -8 38 -20z m-217 -76 c-2 -5 -12
-52 -22 -107 -10 -54 -24 -104 -32 -111 -7 -7 -9 -15 -4 -17 13 -4 -2 -71 -17
-76 -7 -2 -16 7 -21 19 -9 26 30 171 49 177 5 2 7 8 4 13 -10 16 19 109 33
109 8 0 12 -3 10 -7z m60 -30 c-32 -228 -55 -322 -78 -323 -26 0 -17 140 10
167 10 11 12 18 5 20 -11 4 -10 19 11 110 3 15 10 20 20 17 8 -4 15 -1 15 5 0
6 -7 11 -15 11 -16 0 -20 12 -8 23 3 4 15 7 26 7 17 0 19 -5 14 -37z m280 -1
c8 -32 7 -41 -6 -50 -15 -10 -15 -11 1 -11 16 -1 23 -22 43 -133 6 -31 4 -38
-9 -38 -9 0 -16 -5 -16 -11 0 -6 9 -8 20 -4 23 7 26 -8 10 -50 -8 -22 -13 -24
-30 -15 -11 6 -18 15 -15 19 2 5 -6 69 -20 142 -19 103 -22 135 -12 141 9 6 7
11 -6 19 -21 12 -14 29 12 29 13 0 21 -12 28 -38z m45 2 c4 -16 6 -34 4 -41
-3 -6 -1 -13 4 -15 16 -5 62 -179 55 -205 -8 -34 -28 -23 -39 21 -8 29 -7 39
5 47 12 7 11 9 -2 9 -13 0 -21 20 -33 88 -9 48 -19 98 -23 111 -4 17 -2 22 7
19 8 -2 18 -18 22 -34z m-262 -62 c0 -63 -11 -104 -26 -98 -8 3 -14 1 -14 -3
0 -5 7 -11 15 -15 11 -4 15 -21 15 -60 0 -47 -4 -57 -27 -76 -26 -20 -28 -20
-40 -4 -7 10 -13 31 -13 47 0 25 3 28 23 22 21 -6 21 -5 3 9 -17 14 -18 20 -7
78 17 90 20 98 39 98 14 0 14 1 0 13 -11 8 -15 22 -11 44 l5 33 19 -24 c11
-15 19 -40 19 -64z m163 -23 c10 -55 15 -104 12 -110 -4 -5 -15 -9 -26 -9 -11
0 -18 -4 -15 -9 3 -4 16 -6 29 -4 21 4 25 0 30 -32 3 -20 1 -47 -5 -60 -10
-23 -12 -23 -39 -9 -25 12 -29 20 -29 57 0 23 -3 66 -6 95 -6 46 -5 52 12 52
18 1 18 1 2 11 -12 6 -18 22 -18 45 0 32 17 74 30 74 3 0 14 -45 23 -101z
m-73 -3 c0 -29 3 -81 6 -114 7 -59 6 -62 -20 -73 -14 -7 -26 -16 -26 -21 0 -5
9 -4 19 2 27 14 31 13 31 -7 0 -19 -28 -53 -43 -53 -6 0 -20 9 -31 19 -17 16
-20 29 -18 65 4 43 5 46 31 41 l26 -5 -27 12 c-24 10 -28 17 -28 55 0 34 4 43
18 44 10 0 12 3 5 6 -7 2 -13 22 -13 42 0 36 1 38 35 39 l35 1 0 -53z"/>
<path d="M640 1120 c-24 -24 -25 -43 -4 -64 18 -19 55 -21 72 -4 17 17 15 54
-4 72 -21 21 -40 20 -64 -4z"/>
<path d="M591 1983 c-45 -22 -83 -83 -88 -141 -15 -160 196 -246 300 -123 73
87 47 214 -55 267 -36 19 -115 17 -157 -3z"/>
</g>
</svg>
