<?xml version="1.0" standalone="no"?>
<!DOCTYPE svg PUBLIC "-//W3C//DTD SVG 20010904//EN"
 "http://www.w3.org/TR/2001/REC-SVG-20010904/DTD/svg10.dtd">
<svg version="1.0" xmlns="http://www.w3.org/2000/svg"
 width="112.000000pt" height="175.000000pt" viewBox="0 0 112.000000 175.000000"
 preserveAspectRatio="xMidYMid meet">

<g transform="translate(0.000000,175.000000) scale(0.100000,-0.100000)"
fill="#e4f5f5" stroke="none">
<path d="M57 1693 c-11 -11 -8 -35 7 -52 9 -11 19 -83 31 -221 9 -113 19 -208
22 -212 16 -28 17 17 0 200 -14 152 -16 215 -9 235 6 16 8 35 5 43 -5 14 -44
19 -56 7z"/>
<path d="M493 1650 c-18 -7 -43 -38 -43 -52 0 -2 34 -3 75 -3 41 0 75 3 75 6
0 4 -8 16 -17 27 -21 25 -60 35 -90 22z"/>
<path d="M475 1576 c-16 -7 -41 -26 -55 -41 l-25 -27 40 9 c51 10 129 10 178
0 37 -8 37 -7 25 13 -15 23 -85 60 -114 60 -10 -1 -32 -7 -49 -14z"/>
<path d="M435 1497 c-37 -12 -40 -15 -43 -52 -7 -100 99 -164 195 -118 44 21
73 66 73 116 0 32 -4 39 -27 48 -44 17 -154 20 -198 6z"/>
<path d="M595 1290 c-2 -4 -42 -9 -88 -12 -68 -3 -93 -9 -129 -31 -46 -26
-138 -120 -138 -139 0 -7 -15 -8 -40 -4 -40 6 -40 6 -40 -27 0 -43 15 -57 61
-57 53 0 67 8 88 49 11 20 31 47 45 60 l26 24 0 -59 c0 -32 -7 -88 -15 -124
-8 -36 -17 -99 -19 -140 -8 -123 -37 -457 -50 -568 -14 -114 -14 -113 51 -133
24 -6 50 -20 59 -31 21 -22 53 -23 80 -3 24 18 54 18 78 0 26 -20 48 -19 78 4
13 11 42 24 65 30 37 10 68 32 59 42 -11 11 -69 686 -61 700 4 5 -5 39 -18 76
-19 52 -23 81 -20 121 3 28 8 52 12 52 3 0 17 -28 29 -62 37 -99 38 -102 68
-137 42 -50 123 -111 147 -111 20 0 19 2 -8 19 -47 28 -68 58 -68 94 0 17 -11
48 -24 67 -12 19 -23 40 -23 48 0 19 -56 139 -80 169 -11 14 -20 34 -20 43 0
10 -8 21 -17 25 -35 14 -83 23 -88 15z m73 -28 c10 -7 9 -24 -2 -88 -8 -43
-17 -101 -21 -129 -4 -27 -18 -76 -32 -107 l-26 -58 -86 0 c-117 0 -134 6
-126 39 4 14 13 61 19 104 11 75 13 79 45 95 19 9 61 41 94 72 54 49 58 51 41
22 -10 -19 -43 -61 -73 -93 -29 -33 -51 -62 -49 -65 8 -7 105 103 134 152 42
71 40 43 -2 -37 -21 -39 -60 -96 -87 -125 -27 -30 -44 -54 -39 -54 23 0 106
110 145 192 23 48 44 87 47 88 3 0 11 -4 18 -8z m-34 -344 c-39 -77 -103 -174
-163 -246 -29 -35 -51 -65 -48 -68 12 -13 155 181 213 290 l33 61 11 -30 c10
-27 7 -38 -30 -110 -69 -137 -270 -385 -311 -385 -5 0 -9 28 -9 63 l0 62 81
80 c84 83 176 211 219 303 13 30 26 49 28 44 2 -6 -9 -34 -24 -64z m-66 -63
c12 -11 -139 -194 -193 -237 l-27 -21 6 89 c4 49 9 109 12 134 l5 46 97 -4
c53 -2 99 -6 100 -7z m131 -215 c7 -96 19 -231 27 -300 16 -148 17 -180 5
-180 -15 0 -19 23 -36 205 -8 94 -20 208 -25 255 -9 83 -9 82 -5 -36 3 -66 12
-189 21 -274 13 -126 13 -154 2 -161 -39 -24 -276 -23 -345 2 -38 13 -37 9
-22 151 9 88 14 105 32 118 79 54 221 226 289 349 18 33 36 57 39 53 3 -4 11
-86 18 -182z"/>
<path d="M70 1170 c-30 -30 -25 -59 20 -100 l39 -36 43 -472 c27 -299 46 -471
53 -469 5 2 9 10 8 18 -1 8 -21 233 -44 502 -34 380 -46 487 -57 487 -10 0
-10 5 2 22 20 28 20 33 0 52 -21 21 -40 20 -64 -4z"/>
<path d="M886 969 c-67 -53 12 -149 124 -149 45 0 90 34 90 68 0 76 -149 132
-214 81z m139 -25 c13 -8 26 -23 30 -32 4 -12 0 -10 -15 5 -20 22 -34 28 -90
36 -17 3 -13 5 13 6 21 0 48 -6 62 -15z"/>
</g>
</svg>
