<?xml version="1.0" standalone="no"?>
<!DOCTYPE svg PUBLIC "-//W3C//DTD SVG 20010904//EN"
 "http://www.w3.org/TR/2001/REC-SVG-20010904/DTD/svg10.dtd">
<svg version="1.0" xmlns="http://www.w3.org/2000/svg"
 width="158.000000pt" height="178.000000pt" viewBox="0 0 158.000000 178.000000"
 preserveAspectRatio="xMidYMid meet">

<g transform="translate(0.000000,178.000000) scale(0.100000,-0.100000)"
fill="#e4f5f5" stroke="none">
<path d="M840 1670 c14 -10 42 -27 63 -36 20 -9 37 -21 37 -25 0 -4 -19 0 -42
11 -24 10 -45 17 -47 14 -5 -5 -7 -4 58 -43 29 -18 55 -31 57 -29 2 2 1 20 -2
40 -6 33 -12 39 -66 62 -70 31 -93 33 -58 6z"/>
<path d="M794 1560 c-45 -23 -84 -80 -84 -125 0 -28 0 -28 50 19 28 26 79 60
113 76 l62 28 -28 11 c-41 16 -67 14 -113 -9z"/>
<path d="M1260 1479 c-144 -51 -231 -88 -243 -101 -14 -17 -16 -31 -11 -67 11
-84 44 -225 73 -319 l29 -93 -22 -14 c-30 -20 -136 -43 -238 -51 l-88 -7 0 52
c0 34 4 51 13 51 42 0 187 95 187 122 0 6 -17 -5 -38 -24 -39 -35 -150 -94
-159 -84 -3 2 17 16 44 29 26 14 65 41 86 62 42 41 90 128 85 153 -3 10 -9 1
-17 -23 -26 -76 -81 -139 -158 -178 -39 -20 -43 -21 -43 -4 0 7 19 24 42 37
99 56 141 118 151 223 5 46 4 48 -17 41 -11 -4 -55 -8 -96 -9 -81 0 -84 -1
-222 -117 -42 -36 -47 -37 -146 -44 -99 -7 -102 -6 -102 14 0 11 -12 29 -26
39 -23 17 -24 21 -13 45 16 37 5 74 -26 82 -22 6 -23 9 -14 33 7 20 6 30 -7
44 -16 18 -16 19 6 19 19 0 20 2 10 15 -15 18 -7 19 23 3 20 -10 21 -10 8 5
-15 19 -8 22 20 7 29 -16 23 3 -8 23 -24 15 -25 17 -5 12 36 -10 25 3 -30 35
-67 38 -81 37 -111 -1 l-24 -31 -7 26 c-3 14 -11 26 -16 26 -14 0 -12 -34 2
-49 11 -11 8 -13 -17 -8 -39 7 -61 -6 -74 -44 -14 -41 -15 -111 -1 -89 8 12
10 8 11 -15 1 -29 1 -30 9 -5 6 18 8 20 9 7 1 -25 21 -11 22 16 1 17 2 18 6 5
5 -21 14 -23 31 -6 9 9 12 7 12 -10 0 -13 7 -25 15 -27 49 -16 48 -15 35 -30
-26 -31 15 -85 64 -85 9 0 13 -13 12 -37 -1 -31 3 -39 19 -41 18 -2 20 -9 17
-38 -4 -31 -1 -36 25 -46 26 -10 42 -37 123 -202 50 -105 94 -186 96 -180 3 6
-34 91 -81 189 -47 98 -83 180 -80 183 3 3 52 9 110 13 l105 7 59 51 59 51 4
-30 c3 -17 1 -117 -3 -223 -5 -151 -11 -209 -29 -272 -12 -44 -23 -96 -24
-115 -2 -20 -8 -46 -15 -57 -6 -12 -11 -24 -11 -27 0 -10 114 -86 129 -86 19
0 58 93 86 200 9 36 20 68 23 72 4 4 26 10 50 14 l42 7 0 -116 c0 -114 0 -115
27 -133 16 -10 51 -20 79 -22 l52 -4 6 78 c17 203 -2 417 -49 569 -44 140 -78
296 -68 306 7 6 232 89 437 160 84 29 107 56 82 94 -11 17 -25 25 -44 25 -15
-1 -128 -37 -252 -81z m-992 -121 c7 -7 8 -17 1 -30 -14 -26 -23 -23 -36 12
-10 26 -9 30 6 30 9 0 22 -5 29 -12z m-53 -29 c19 -36 17 -40 -13 -32 -22 5
-27 19 -16 47 8 22 11 21 29 -15z m94 -58 c11 -7 12 -17 5 -43 l-10 -33 -17
32 c-9 18 -17 37 -17 43 0 12 20 13 39 1z m-44 -42 c20 -37 16 -43 -19 -30
-27 11 -30 18 -20 45 9 24 22 19 39 -15z m85 -100 c0 -6 -4 -7 -10 -4 -5 3
-10 11 -10 16 0 6 5 7 10 4 6 -3 10 -11 10 -16z m-30 -10 c0 -5 -4 -9 -10 -9
-5 0 -10 7 -10 16 0 8 5 12 10 9 6 -3 10 -10 10 -16z m815 -395 l7 -82 -54 -7
c-112 -14 -243 -38 -281 -51 -22 -8 -42 -13 -44 -11 -2 2 3 33 11 68 22 101
27 149 16 149 -5 0 -10 -14 -10 -31 0 -43 -30 -169 -47 -199 l-14 -25 6 30 c4
17 13 59 21 95 7 36 14 79 14 95 0 17 4 35 8 41 4 6 43 15 87 18 94 9 195 30
233 50 27 14 27 14 33 -22 4 -21 10 -74 14 -118z"/>
<path d="M892 1518 c-34 -12 -76 -42 -115 -78 -60 -57 -61 -58 -47 -85 19 -36
88 -75 132 -75 39 0 90 31 122 73 29 39 29 115 0 153 -26 36 -30 37 -92 12z"/>
<path d="M534 1472 c3 -5 31 -17 63 -27 32 -11 63 -23 68 -28 9 -9 -2 -7 -74
10 -44 11 -13 -15 39 -32 60 -20 65 -29 10 -20 -50 9 -52 0 -2 -15 20 -7 45
-22 54 -34 17 -20 18 -20 18 -1 0 11 -6 42 -13 70 -13 48 -15 50 -68 67 -59
18 -103 23 -95 10z"/>
<path d="M510 492 c0 -4 21 -43 46 -86 25 -43 43 -80 41 -82 -3 -3 -22 18 -43
47 -49 67 -56 46 -11 -31 39 -65 37 -88 -3 -34 -44 59 -50 32 -7 -30 18 -25
19 -34 10 -69 -19 -71 12 -116 80 -117 34 0 41 5 83 63 25 34 55 79 65 99 18
36 18 37 0 43 -10 3 -40 21 -67 40 -31 22 -52 31 -58 25 -6 -6 -29 18 -63 65
-49 67 -73 90 -73 67z"/>
<path d="M860 402 c0 -4 25 -32 55 -62 67 -66 72 -87 9 -35 -25 20 -48 35 -51
32 -3 -3 16 -28 41 -55 53 -56 61 -76 15 -37 -43 35 -50 23 -11 -18 23 -23 32
-42 32 -66 0 -45 14 -67 50 -80 62 -21 99 13 124 114 30 126 32 115 -17 115
-23 0 -60 9 -80 19 -31 16 -39 17 -43 6 -4 -10 -21 -1 -60 31 -56 45 -64 50
-64 36z"/>
</g>
</svg>
