<?xml version="1.0" standalone="no"?>
<!DOCTYPE svg PUBLIC "-//W3C//DTD SVG 20010904//EN"
 "http://www.w3.org/TR/2001/REC-SVG-20010904/DTD/svg10.dtd">
<svg version="1.0" xmlns="http://www.w3.org/2000/svg"
 width="175.000000pt" height="218.000000pt" viewBox="0 0 175.000000 218.000000"
 preserveAspectRatio="xMidYMid meet">

<g transform="translate(0.000000,218.000000) scale(0.100000,-0.100000)"
fill="#000000" stroke="none">
<path d="M1390 2125 c-17 -20 -2 -38 25 -31 29 7 65 -22 43 -35 -7 -5 -30 -9
-51 -9 -44 0 -97 -43 -97 -79 0 -25 -4 -26 -35 -5 -18 12 -31 13 -59 5 -32 -8
-36 -7 -36 9 0 28 43 72 70 74 31 1 39 32 10 41 -46 15 -120 -61 -120 -124 0
-39 25 -54 71 -41 19 6 35 10 36 10 9 0 33 -35 33 -49 0 -16 -7 -18 -68 -13
-51 3 -76 0 -100 -12 -17 -9 -34 -16 -37 -16 -3 0 -3 22 1 48 7 59 -11 81 -54
66 -33 -11 -36 -39 -5 -38 20 0 21 -3 16 -46 -4 -35 -1 -49 12 -60 15 -12 23
-12 65 3 26 9 61 17 76 17 l29 0 -31 -19 c-18 -11 -45 -35 -60 -55 -28 -35
-29 -35 -47 -16 -10 11 -26 20 -36 20 -22 0 -55 -35 -46 -49 8 -14 35 -14 35
-1 0 20 20 9 35 -20 19 -37 40 -38 59 -2 8 15 25 37 38 49 l23 22 0 -110 c0
-84 -3 -112 -14 -118 -20 -13 -40 -3 -57 30 -17 33 -30 36 -62 13 -31 -21 -29
-48 3 -42 18 4 29 -1 40 -18 12 -18 25 -24 53 -24 20 0 42 4 48 8 21 14 34 51
35 99 l0 48 17 -40 c33 -77 61 -123 92 -149 38 -31 44 -32 70 -6 29 29 40 61
60 175 l17 100 18 -40 c21 -48 53 -85 75 -85 8 0 26 7 39 16 19 13 28 14 48 5
36 -17 52 7 22 32 -25 20 -46 21 -79 2 -34 -19 -35 -19 -48 11 -11 23 -9 28
20 52 17 15 45 29 62 32 19 3 32 12 34 23 6 29 -69 23 -108 -10 l-32 -26 -37
43 c-32 37 -44 44 -74 44 -22 0 -32 3 -24 8 21 14 48 9 98 -18 63 -35 83 -28
74 26 -5 31 -4 40 7 40 8 0 25 11 38 25 13 14 34 25 47 25 39 0 26 34 -14 38
-25 3 -35 -2 -49 -22 -9 -14 -25 -26 -35 -26 -26 0 -25 36 2 43 30 8 21 43
-11 39 -33 -3 -50 -20 -50 -49 0 -22 -3 -24 -22 -19 -61 18 -88 18 -114 1 -32
-21 -37 -16 -23 23 11 32 16 35 90 47 71 11 86 62 32 105 -30 24 -66 26 -83 5z
m82 -217 c22 -6 44 -20 50 -31 8 -15 7 -18 -4 -14 -60 25 -91 30 -119 20 -23
-9 -29 -9 -29 2 0 15 27 34 49 35 7 0 31 -5 53 -12z m-42 -197 c0 -16 -30 -33
-46 -27 -13 5 -14 9 -4 21 13 16 50 21 50 6z m-111 -14 c13 -16 5 -27 -20 -27
-21 0 -33 15 -24 30 9 14 31 12 44 -3z m15 -58 c4 6 22 10 41 9 30 -1 35 -5
35 -26 0 -24 -28 -92 -37 -92 -10 0 -45 45 -54 68 -12 31 -12 62 0 43 6 -9 11
-10 15 -2z"/>
<path d="M772 1623 c-31 -15 -72 -57 -72 -73 0 -4 26 2 58 13 41 14 76 18 129
15 70 -3 71 -3 55 15 -43 47 -111 59 -170 30z"/>
<path d="M504 1581 c3 -5 33 -17 66 -27 68 -20 82 -37 19 -23 -63 14 -70 5
-14 -16 65 -24 81 -39 33 -30 -49 9 -49 0 -1 -16 20 -6 46 -21 56 -33 18 -21
18 -21 13 13 -18 101 -22 107 -84 125 -65 18 -96 20 -88 7z"/>
<path d="M780 1544 c-66 -22 -90 -38 -90 -62 0 -62 57 -124 128 -138 94 -19
195 93 162 180 -9 25 -11 26 -97 25 -49 0 -95 -3 -103 -5z"/>
<path d="M1225 1454 c-21 -41 -44 -79 -50 -83 -5 -5 -53 -22 -105 -38 -86 -27
-106 -29 -222 -28 -69 2 -131 -1 -138 -5 -9 -5 -8 -15 5 -40 12 -23 14 -35 6
-43 -16 -16 -13 -26 7 -20 13 3 34 -17 79 -74 34 -43 75 -88 92 -101 21 -15
28 -27 24 -39 -5 -13 -2 -15 11 -10 10 4 27 0 39 -8 44 -31 47 -23 47 113 l0
129 108 32 c59 18 112 37 119 43 7 5 30 44 53 85 l40 75 -30 34 c-16 19 -30
39 -30 44 0 26 -18 3 -55 -66z"/>
<path d="M607 1248 c-70 -75 -113 -209 -124 -388 -5 -81 -9 -97 -22 -96 -10 1
-16 -7 -16 -21 0 -17 -39 -49 -175 -144 -96 -67 -180 -123 -186 -126 -9 -3
-44 -65 -44 -78 0 -3 17 -5 38 -5 33 0 66 19 227 131 155 107 192 129 206 120
13 -7 20 -7 29 4 8 10 8 15 -1 21 -9 5 -6 10 9 15 12 5 26 19 31 32 5 12 17
29 27 37 16 14 17 13 11 -16 -3 -17 -2 -35 2 -40 5 -5 -5 -67 -20 -138 -16
-71 -26 -133 -23 -137 3 -5 14 -9 25 -9 20 0 20 -4 12 -107 -12 -163 -10 -183
16 -204 25 -21 72 -25 101 -9 26 14 38 59 46 172 5 80 9 97 24 101 14 4 19 20
25 87 8 85 25 94 25 14 0 -64 11 -106 26 -100 14 5 20 -22 30 -152 5 -65 11
-89 28 -107 32 -36 84 -37 117 -2 20 21 21 28 14 146 -4 68 -9 130 -12 137 -3
8 5 18 21 24 32 12 32 11 1 154 -14 63 -22 122 -19 131 4 9 -4 54 -16 101 -22
80 -25 86 -61 105 -28 14 -37 24 -32 35 5 13 2 15 -13 10 -26 -8 -116 68 -107
91 5 12 2 15 -10 10 -23 -9 -70 53 -60 78 5 14 3 17 -10 12 -15 -6 -50 40 -90
118 l-15 30 -35 -37z m43 -396 c-10 -45 -14 -51 -27 -41 -12 10 -16 10 -24 -2
-7 -12 -9 -12 -10 1 -5 79 14 201 44 279 l22 56 3 -120 c2 -66 -2 -144 -8
-173z m193 -32 c29 1 76 9 105 19 28 10 52 15 52 11 0 -10 -67 -37 -113 -45
-20 -4 -37 -11 -37 -16 0 -11 36 -3 105 22 67 25 71 23 10 -7 -29 -13 -41 -24
-30 -24 11 1 31 7 45 15 14 8 28 14 32 15 10 0 31 -101 22 -109 -5 -4 -46 -36
-91 -69 l-82 -62 -110 77 c-106 74 -121 92 -102 122 6 10 13 10 28 3 11 -6 30
-8 43 -5 l22 6 -23 13 c-29 16 -42 18 -34 4 4 -6 -1 -7 -11 -3 -12 4 -14 8 -6
11 10 3 10 7 0 19 -9 11 2 9 32 -7 58 -30 98 -41 105 -29 4 5 -2 9 -12 9 -25
0 -123 47 -123 58 0 6 27 1 61 -9 33 -10 84 -19 112 -19z m-383 -137 c-12 -15
-12 -16 0 -5 18 16 30 15 30 -2 0 -21 -374 -276 -405 -276 -26 0 -28 4 -17 33
10 24 385 286 396 276 5 -5 4 -16 -4 -26z m378 -123 c3 -7 -27 12 -64 41 -101
77 -110 90 -19 27 43 -31 81 -61 83 -68z m226 -10 c25 -116 25 -130 2 -130
-10 0 -16 23 -20 78 -4 42 -9 100 -12 127 -10 80 3 48 30 -75z m-430 -3 c-7
-111 -15 -140 -34 -121 -9 9 -6 41 11 122 13 61 25 109 27 107 2 -2 0 -50 -4
-108z m180 -65 c-7 -76 -13 -102 -22 -102 -4 0 -4 35 0 78 3 42 7 81 7 85 1 5
6 5 11 2 6 -4 8 -30 4 -63z m70 -13 c6 -75 4 -100 -9 -88 -10 10 -18 169 -8
169 6 0 13 -37 17 -81z"/>
</g>
</svg>
