<?xml version="1.0" standalone="no"?>
<!DOCTYPE svg PUBLIC "-//W3C//DTD SVG 20010904//EN"
 "http://www.w3.org/TR/2001/REC-SVG-20010904/DTD/svg10.dtd">
<svg version="1.0" xmlns="http://www.w3.org/2000/svg"
 width="98.000000pt" height="138.000000pt" viewBox="0 0 98.000000 138.000000"
 preserveAspectRatio="xMidYMid meet">

<g transform="translate(0.000000,138.000000) scale(0.100000,-0.100000)"
fill="#000000" stroke="none">
<path d="M180 1307 c0 -10 4 -25 10 -35 5 -9 13 -38 18 -65 9 -45 9 -47 -15
-53 -13 -4 -26 -4 -29 -1 -12 11 -31 117 -21 117 5 0 4 7 -3 15 -18 21 -35 4
-22 -21 5 -11 12 -43 15 -71 6 -53 6 -53 -22 -53 -27 0 -30 3 -39 58 -6 35 -6
59 0 63 5 3 3 11 -6 18 -20 17 -26 1 -16 -45 5 -21 10 -58 10 -81 l0 -42 43
-3 42 -3 41 -223 c22 -123 39 -234 36 -248 -2 -13 0 -30 6 -37 6 -7 32 -130
57 -272 53 -293 52 -288 64 -281 5 3 3 37 -4 78 -63 348 -77 426 -81 443 -4
18 6 25 77 50 86 32 92 37 105 110 12 68 15 15 4 -85 -33 -310 -49 -515 -40
-518 6 -2 10 -12 10 -22 0 -32 12 -51 38 -61 31 -12 72 12 72 41 0 17 7 20 49
20 41 0 51 -4 56 -20 4 -11 17 -28 31 -36 22 -15 26 -15 49 0 14 9 28 29 31
44 4 15 11 29 15 32 14 10 -13 513 -37 686 l-6 40 86 34 c47 18 91 38 96 45
14 17 40 156 40 215 0 72 -44 105 -83 62 -21 -23 -21 -36 -2 -52 16 -14 14
-61 -6 -141 -8 -34 -15 -39 -76 -64 -64 -25 -68 -26 -81 -8 -8 11 -11 31 -8
50 7 46 -21 63 -99 63 -86 0 -102 -14 -103 -91 -1 -58 -3 -63 -40 -98 -33 -31
-58 -78 -77 -148 -4 -13 -106 -53 -117 -46 -5 2 -8 14 -8 25 0 11 -13 93 -29
182 -48 265 -48 240 -7 254 41 15 41 14 17 105 -17 67 -41 110 -41 74z m400
-336 c0 -5 -14 -15 -31 -24 -30 -14 -31 -15 -11 -26 27 -14 68 -14 94 0 20 11
20 12 -10 25 -18 7 -32 18 -32 24 0 15 26 12 40 -5 7 -8 21 -15 31 -15 16 0
19 -8 19 -45 0 -41 -3 -47 -42 -75 -51 -38 -64 -37 -111 1 -33 27 -37 36 -37
75 0 36 3 44 19 44 10 0 24 7 31 15 14 16 40 20 40 6z m130 -171 c15 -101 39
-441 40 -566 l0 -101 -37 -7 c-49 -8 -188 -8 -247 0 l-46 7 0 41 c0 22 5 91
10 151 22 231 17 212 58 236 20 12 49 34 64 47 30 28 68 117 68 159 0 16 12
37 35 59 19 18 35 38 35 45 0 30 9 -2 20 -71z"/>
<path d="M466 508 c-3 -13 -5 -54 -4 -93 l1 -70 8 90 c8 91 6 114 -5 73z"/>
<path d="M447 246 c-5 -43 -6 -80 -3 -83 7 -7 18 98 14 132 -2 17 -7 -5 -11
-49z"/>
<path d="M581 1204 c-1 -11 -7 -28 -14 -39 -13 -17 -15 -17 -31 6 -17 24 -17
24 -10 -16 9 -55 9 -55 60 -55 47 0 48 1 58 60 6 34 6 35 -9 12 -20 -27 -32
-21 -44 21 -6 22 -9 25 -10 11z"/>
<path d="M471 1113 c-27 -33 -49 -109 -56 -193 -7 -82 9 -50 19 37 8 72 29
128 59 161 11 12 16 22 9 22 -6 0 -20 -12 -31 -27z"/>
<path d="M672 1124 c25 -28 58 -105 58 -136 0 -15 5 -30 11 -34 9 -5 10 4 5
32 -12 60 -47 134 -70 146 -20 10 -20 10 -4 -8z"/>
<path d="M740 798 c0 -49 5 -47 14 5 4 23 3 37 -4 37 -5 0 -10 -19 -10 -42z"/>
</g>
</svg>
