<?xml version="1.0" standalone="no"?>
<!DOCTYPE svg PUBLIC "-//W3C//DTD SVG 20010904//EN"
 "http://www.w3.org/TR/2001/REC-SVG-20010904/DTD/svg10.dtd">
<svg version="1.0" xmlns="http://www.w3.org/2000/svg"
 width="105.000000pt" height="174.000000pt" viewBox="0 0 105.000000 174.000000"
 preserveAspectRatio="xMidYMid meet">

<g transform="translate(0.000000,174.000000) scale(0.100000,-0.100000)"
fill="#000000" stroke="none">
<path d="M506 1584 c-21 -20 -20 -24 4 -24 10 0 24 9 30 20 8 16 8 20 -4 20
-8 0 -22 -7 -30 -16z"/>
<path d="M662 1588 c3 -7 17 -19 33 -28 42 -23 67 -62 72 -113 5 -43 6 -44 25
-28 11 9 24 24 29 34 9 15 7 17 -14 12 -30 -8 -43 8 -22 25 17 14 20 50 5 50
-6 0 -13 -7 -16 -15 -10 -24 -25 -6 -18 21 3 13 3 32 -1 41 -6 16 -8 15 -19
-6 l-13 -24 -12 21 c-12 23 -56 31 -49 10z"/>
<path d="M453 1555 c6 -36 -8 -59 -19 -31 -3 9 -11 16 -16 16 -11 0 -7 -30 7
-64 7 -17 5 -18 -18 -12 -35 8 -34 -4 2 -36 l29 -26 5 45 c2 25 14 58 26 74
17 23 19 33 11 49 -18 33 -33 24 -27 -15z"/>
<path d="M542 1533 c-73 -35 -99 -136 -53 -201 80 -113 251 -60 251 78 0 106
-103 170 -198 123z"/>
<path d="M120 1459 c0 -21 -1 -21 -18 -6 -10 10 -24 17 -31 17 -16 0 -9 -22
10 -30 8 -4 24 -12 36 -18 31 -16 30 -16 29 20 -1 36 -26 53 -26 17z"/>
<path d="M162 1431 c-10 -27 -7 -31 51 -74 95 -70 188 -164 181 -181 -7 -18
-1 -21 -97 53 -39 30 -56 49 -52 60 2 9 0 23 -5 31 -9 13 -12 12 -22 -5 -12
-19 -13 -18 -18 9 -6 35 -30 48 -30 16 0 -12 -4 -19 -9 -16 -5 3 -7 14 -4 24
2 10 -3 24 -11 31 -14 12 -16 10 -16 -8 0 -11 -5 -21 -11 -21 -6 0 -9 6 -6 13
5 15 -10 47 -23 47 -6 0 -10 -10 -10 -22 0 -20 -1 -20 -18 -5 -10 10 -24 17
-31 17 -16 0 -9 -22 10 -30 88 -41 144 -73 217 -125 130 -93 125 -85 97 -180
-38 -131 -41 -169 -16 -194 12 -12 32 -21 46 -21 24 0 25 -3 25 -57 0 -32 -5
-125 -12 -206 -10 -122 -10 -150 1 -156 11 -7 11 -34 1 -150 -13 -152 -11
-164 35 -175 13 -3 27 -15 30 -26 17 -52 96 -61 117 -14 14 31 31 30 48 -1 8
-14 24 -28 37 -31 27 -7 73 19 73 42 0 8 15 21 34 29 19 8 37 19 41 25 3 5 1
73 -6 151 -10 113 -10 142 0 149 10 6 11 36 2 147 -13 161 -14 300 -3 289 4
-4 12 -51 17 -103 8 -73 14 -99 28 -107 12 -8 22 -8 35 0 50 33 -19 455 -86
527 -30 32 -42 35 -35 7 7 -28 -6 -90 -19 -90 -10 0 -8 57 7 160 3 19 1 42 -4
50 -9 13 -15 10 -41 -15 -58 -59 -49 -178 16 -207 23 -11 25 -17 20 -47 -6
-40 -71 -181 -83 -181 -14 0 -33 38 -27 54 3 8 -3 23 -15 33 -37 34 -55 48
-62 48 -4 0 -11 4 -16 9 -5 5 -3 6 5 2 6 -4 12 -4 12 -1 0 9 -85 118 -104 134
-21 17 -21 57 0 65 33 13 43 4 59 -48 10 -30 30 -69 45 -88 25 -29 31 -32 55
-23 15 6 37 22 48 37 17 23 18 30 7 43 -7 9 -14 36 -14 60 l-1 44 -75 3 c-79
3 -125 -6 -149 -28 -12 -11 -25 -3 -85 54 -39 37 -71 76 -72 87 -3 49 -4 50
-25 25 l-21 -25 6 26 c3 14 0 34 -8 44 -12 17 -13 16 -20 -9 -9 -35 -24 -25
-18 12 5 40 -14 49 -26 13z m341 -364 c21 -25 36 -51 32 -57 -4 -6 -2 -17 4
-24 9 -10 -1 -16 -45 -25 -30 -7 -56 -11 -58 -9 -1 1 0 34 2 72 l4 68 46 -43
47 -44 -47 50 c-27 28 -48 60 -48 70 1 18 2 18 13 4 7 -8 29 -36 50 -62z m256
-95 c-32 -82 -71 -152 -80 -146 -5 2 7 33 25 67 19 34 42 89 53 122 13 43 19
53 21 37 2 -13 -6 -49 -19 -80z m15 -140 c-24 -65 -124 -165 -243 -243 -57
-38 -108 -69 -113 -69 -22 0 0 19 75 67 89 56 190 142 209 176 6 12 -18 -6
-53 -40 -71 -69 -119 -105 -193 -148 l-49 -29 7 35 c3 19 11 35 16 37 33 12
141 96 186 146 62 68 78 71 33 5 l-31 -44 37 40 c33 36 99 154 120 215 7 20 9
12 12 -40 3 -44 -1 -78 -13 -108z m-133 31 c10 -18 9 -27 -6 -50 -28 -42 -113
-120 -168 -154 l-50 -30 8 113 c4 62 8 114 10 116 10 11 107 29 147 28 38 -1
50 -5 59 -23z m149 -219 c6 -82 13 -161 16 -176 5 -24 1 -28 -33 -38 -93 -26
-313 -21 -362 9 -31 20 -2 55 90 110 94 56 253 196 264 232 4 11 9 19 11 17 2
-3 8 -72 14 -154z m-342 -361 c-4 -79 -3 -109 2 -78 5 28 9 82 9 121 1 39 3
73 6 75 2 3 32 2 67 -2 35 -3 103 -2 152 2 63 7 92 6 96 -2 4 -6 10 -59 14
-119 3 -60 9 -116 12 -124 9 -22 -26 -35 -118 -44 -90 -9 -236 1 -269 19 -15
7 -19 17 -15 33 3 12 8 73 12 134 6 90 10 112 22 112 13 0 14 -18 10 -127z"/>
</g>
</svg>
