<?xml version="1.0" standalone="no"?>
<!DOCTYPE svg PUBLIC "-//W3C//DTD SVG 20010904//EN"
 "http://www.w3.org/TR/2001/REC-SVG-20010904/DTD/svg10.dtd">
<svg version="1.0" xmlns="http://www.w3.org/2000/svg"
 width="142.000000pt" height="175.000000pt" viewBox="0 0 142.000000 175.000000"
 preserveAspectRatio="xMidYMid meet">

<g transform="translate(0.000000,175.000000) scale(0.100000,-0.100000)"
fill="#000000" stroke="none">
<path d="M595 1610 c-4 -6 -3 -16 3 -22 6 -6 12 -6 17 2 4 6 3 16 -3 22 -6 6
-12 6 -17 -2z"/>
<path d="M854 1606 c-8 -22 3 -33 18 -18 9 9 9 15 0 24 -9 9 -13 7 -18 -6z"/>
<path d="M669 1595 c-14 -8 -34 -26 -43 -40 -17 -25 -17 -26 8 -19 38 9 152
-14 208 -42 l49 -25 -7 28 c-10 40 -41 81 -74 98 -36 19 -107 19 -141 0z"/>
<path d="M560 1555 c0 -8 7 -15 15 -15 8 0 15 7 15 15 0 8 -7 15 -15 15 -8 0
-15 -7 -15 -15z"/>
<path d="M887 1563 c-12 -11 -8 -23 8 -23 8 0 15 7 15 15 0 16 -12 20 -23 8z"/>
<path d="M597 1488 c-19 -74 61 -168 142 -168 55 0 89 19 124 70 30 43 22 59
-40 87 -43 20 -79 28 -139 31 -79 4 -81 4 -87 -20z"/>
<path d="M555 1260 c-48 -24 -90 -84 -111 -160 -8 -30 -17 -60 -19 -67 -2 -6
-25 -15 -52 -19 -52 -7 -83 -27 -83 -54 0 -30 -26 -42 -80 -38 -55 3 -59 0
-30 -27 19 -17 25 -16 165 10 80 15 152 33 159 41 8 7 19 42 26 77 20 110 30
101 30 -31 0 -91 -4 -128 -15 -145 -26 -40 -54 -184 -80 -409 l-6 -58 37 0
c35 0 36 -1 31 -28 -3 -15 -9 -77 -13 -137 -7 -125 2 -149 63 -161 27 -5 37
-1 61 22 28 28 29 33 42 201 l13 171 43 37 c24 20 44 35 45 33 0 -2 9 -97 19
-212 20 -235 26 -250 96 -250 72 0 84 45 66 247 -6 59 -5 77 5 77 8 0 13 14
13 38 0 77 -31 357 -45 413 -10 36 -15 100 -14 175 l1 119 18 -55 c11 -30 19
-67 19 -81 1 -14 9 -33 19 -41 9 -8 81 -28 160 -43 l143 -28 -6 -46 c-6 -53 4
-37 29 46 20 64 20 77 1 93 -8 7 -15 22 -15 33 0 11 -3 17 -7 13 -5 -4 -8 -12
-8 -17 0 -14 -9 -14 -115 6 l-100 18 -11 41 c-28 107 -65 169 -119 197 -29 16
-58 19 -185 19 -130 0 -155 -3 -190 -20z m358 -440 c-53 -224 -207 -393 -381
-416 -62 -8 -59 -19 -37 153 16 119 36 217 53 263 l10 25 180 0 181 0 -6 -25z
m31 -166 c23 -204 25 -254 14 -254 -22 0 -85 79 -107 132 l-22 56 29 48 c17
27 38 73 47 102 10 29 19 51 21 49 2 -2 10 -62 18 -133z"/>
<path d="M562 758 c-30 -140 -51 -302 -41 -313 4 -3 12 36 18 87 11 82 30 186
46 256 3 12 2 22 -3 22 -5 0 -14 -24 -20 -52z"/>
<path d="M87 1073 c-13 -12 -7 -43 8 -43 9 0 31 -16 51 -35 19 -19 30 -35 24
-35 -6 0 -8 -4 -5 -10 8 -13 105 -13 105 -1 0 5 -6 12 -12 15 -10 5 -10 7 1
12 7 4 23 17 34 30 11 13 29 24 39 24 23 0 24 35 2 44 -21 8 -239 8 -247 -1z
m23 -23 c0 -5 -4 -10 -10 -10 -5 0 -10 5 -10 10 0 6 5 10 10 10 6 0 10 -4 10
-10z m230 0 c0 -5 -4 -10 -10 -10 -5 0 -10 5 -10 10 0 6 5 10 10 10 6 0 10 -4
10 -10z"/>
<path d="M1321 811 c-19 -12 -4 -51 20 -51 25 0 35 25 19 45 -14 17 -20 18
-39 6z"/>
<path d="M1180 795 c-11 -13 -11 -19 3 -32 21 -21 49 -9 45 19 -4 28 -30 35
-48 13z"/>
<path d="M1244 755 c-9 -23 3 -45 25 -45 23 0 35 28 20 46 -15 18 -38 18 -45
-1z"/>
<path d="M1320 725 c-11 -13 -11 -19 3 -32 21 -21 49 -9 45 19 -4 28 -30 35
-48 13z"/>
<path d="M1174 705 c-4 -9 -2 -21 4 -27 16 -16 47 -5 47 17 0 26 -42 34 -51
10z"/>
<path d="M1250 675 c-11 -13 -11 -19 3 -32 21 -21 49 -9 45 19 -4 28 -30 35
-48 13z"/>
<path d="M1180 635 c-16 -19 -6 -45 19 -45 23 0 35 28 20 46 -15 18 -24 18
-39 -1z"/>
</g>
</svg>
