<?xml version="1.0" standalone="no"?>
<!DOCTYPE svg PUBLIC "-//W3C//DTD SVG 20010904//EN"
 "http://www.w3.org/TR/2001/REC-SVG-20010904/DTD/svg10.dtd">
<svg version="1.0" xmlns="http://www.w3.org/2000/svg"
 width="147.000000pt" height="187.000000pt" viewBox="0 0 147.000000 187.000000"
 preserveAspectRatio="xMidYMid meet">

<g transform="translate(0.000000,187.000000) scale(0.100000,-0.100000)"
fill="#e4f5f5" stroke="none">
<path d="M364 1772 c-28 -10 -73 -32 -101 -50 -27 -18 -58 -32 -67 -32 -34 0
-56 -20 -56 -50 0 -18 -13 -48 -30 -72 -38 -52 -70 -155 -69 -222 0 -28 6 -80
13 -116 11 -56 14 -61 21 -38 4 16 53 70 120 132 l113 106 111 -123 110 -122
1 -70 c3 -219 1 -205 23 -190 11 8 48 41 83 75 35 34 68 59 74 55 5 -3 7 0 5
8 -3 7 15 35 40 63 25 27 46 51 46 54 0 3 8 3 17 2 13 -3 14 -1 4 10 -9 11 -8
19 3 34 8 10 15 21 15 24 0 3 -53 6 -117 7 l-118 2 -40 43 c-22 25 -71 79
-110 122 l-70 78 123 120 c68 66 137 124 155 131 l32 11 -45 9 c-25 4 -88 10
-140 13 -75 3 -105 1 -146 -14z m240 -11 c15 -6 -2 -26 -104 -124 -67 -64
-125 -117 -129 -116 -13 1 -130 142 -125 150 9 15 98 63 149 81 51 18 173 23
209 9z m-321 -308 c7 -11 -20 -42 -100 -118 -97 -92 -109 -100 -115 -81 -24
80 8 215 74 309 l20 28 57 -62 c31 -34 60 -68 64 -76z"/>
<path d="M650 1573 l-35 -17 75 -7 c41 -4 88 -12 103 -18 43 -17 52 -13 31 10
-42 48 -113 60 -174 32z"/>
<path d="M587 1516 c-9 -10 -18 -28 -18 -42 -1 -13 -2 -30 -2 -36 -4 -64 54
-131 121 -143 50 -8 115 17 143 57 26 36 36 102 20 122 -18 22 -96 45 -177 52
-58 5 -73 4 -87 -10z"/>
<path d="M923 1358 c-23 -12 -57 -36 -75 -55 l-32 -33 35 0 c88 0 165 -101
193 -252 6 -33 21 -56 31 -47 2 2 -3 21 -10 42 -7 20 -11 37 -10 37 1 0 24
-29 49 -64 40 -53 90 -95 101 -84 2 2 -12 36 -31 77 -19 40 -34 76 -34 79 0 2
26 -29 58 -69 74 -94 87 -105 96 -83 6 15 -17 58 -118 223 -5 8 22 -17 60 -57
79 -82 103 -93 79 -34 -40 95 -166 268 -228 313 -49 36 -104 38 -164 7z"/>
<path d="M283 1296 c-53 -58 -126 -163 -162 -233 -43 -86 -19 -85 66 4 l64 68
-70 -120 c-119 -201 -83 -194 81 15 27 34 27 33 -6 -40 -19 -42 -38 -89 -42
-105 l-7 -30 23 20 c13 11 49 55 82 98 32 43 58 77 58 75 0 -3 -7 -28 -16 -57
-8 -29 -14 -63 -12 -75 3 -22 6 -21 91 27 l87 50 0 86 0 86 -80 90 c-44 50
-86 91 -94 93 -7 2 -36 -22 -63 -52z"/>
<path d="M863 1202 c-12 -22 -47 -71 -79 -110 -48 -61 -59 -70 -72 -60 -13 11
-14 10 -8 -7 8 -28 -72 -109 -97 -99 -14 5 -16 2 -10 -12 6 -17 5 -18 -12 -4
-16 14 -17 13 -11 -6 5 -16 0 -25 -17 -37 -46 -30 -99 -334 -61 -355 12 -7 12
-36 -3 -215 -17 -206 -17 -207 4 -235 16 -22 28 -27 63 -27 70 0 77 17 95 240
9 105 18 195 20 202 2 7 19 11 42 10 l38 -3 16 -200 c9 -110 21 -209 27 -221
25 -46 100 -47 134 -2 18 24 18 31 2 233 -15 185 -15 209 -2 217 13 7 11 29
-13 176 -20 117 -29 203 -29 283 0 127 11 132 31 15 7 -38 16 -75 21 -81 9
-13 243 -144 256 -144 8 0 52 71 52 83 0 3 -49 33 -109 66 -108 60 -109 61
-116 103 -12 72 -46 149 -82 189 -20 22 -40 39 -47 39 -6 0 -21 -17 -33 -38z
m-185 -402 l43 0 -57 -50 c-31 -27 -69 -55 -85 -62 -27 -12 -39 -28 -21 -28
10 0 86 54 152 108 79 64 84 49 7 -22 -65 -60 -178 -136 -204 -136 -9 0 -11
10 -7 33 8 43 36 160 40 168 2 4 23 3 46 -2 24 -4 62 -8 86 -9z m165 -12 c3
-13 11 -62 18 -110 7 -49 16 -88 21 -88 5 0 7 8 4 18 -10 38 -28 193 -22 199
3 4 8 4 11 2 7 -8 49 -269 43 -274 -2 -3 -29 -10 -59 -15 -123 -24 -367 -6
-355 27 3 8 6 21 6 28 0 8 10 17 23 21 39 12 150 89 220 152 37 34 71 62 76
62 5 0 11 -10 14 -22z"/>
<path d="M1409 1121 c-19 -15 -21 -22 -12 -33 10 -11 -17 -63 -137 -264 -83
-137 -155 -253 -162 -259 -7 -5 -27 -26 -44 -46 -38 -45 -38 -89 1 -81 18 3
28 18 46 66 33 94 120 236 147 243 29 7 44 36 36 67 -4 16 0 31 13 43 10 11
19 24 20 30 1 5 25 48 53 95 40 66 55 85 69 81 22 -6 33 19 25 53 -7 29 -24
30 -55 5z"/>
</g>
</svg>
