<?xml version="1.0" standalone="no"?>
<!DOCTYPE svg PUBLIC "-//W3C//DTD SVG 20010904//EN"
 "http://www.w3.org/TR/2001/REC-SVG-20010904/DTD/svg10.dtd">
<svg version="1.0" xmlns="http://www.w3.org/2000/svg"
 width="68.000000pt" height="60.000000pt" viewBox="0 0 68.000000 60.000000"
 preserveAspectRatio="xMidYMid meet">

<g transform="translate(0.000000,60.000000) scale(0.100000,-0.100000)"
fill="#000000" stroke="none">
<path d="M205 549 c-51 -38 -115 -102 -136 -136 l-20 -33 28 -25 c15 -13 31
-25 34 -25 4 0 19 19 34 41 l27 42 68 -68 69 -68 -27 -31 c-15 -17 -60 -62
-100 -100 -40 -38 -72 -75 -72 -81 0 -7 7 -18 15 -25 13 -11 32 3 121 90 l105
102 99 -103 98 -104 21 20 21 21 -103 102 -104 102 63 67 62 68 23 -21 c13
-12 48 -34 77 -48 l53 -27 -32 63 c-35 70 -69 118 -82 118 -4 0 -24 17 -43 37
l-35 37 -32 -33 -32 -32 36 -34 37 -33 -63 -62 c-73 -72 -70 -72 -155 15 l-55
56 25 19 c14 10 33 25 44 33 18 13 18 15 -10 46 l-29 33 -30 -23z"> 
<animate attributeName="fill" values="#161515;#ecdc98;#161515" dur="7s" repeatCount="indefinite"/>
</path>
</g>
</svg>
