<?xml version="1.0" standalone="no"?>
<!DOCTYPE svg PUBLIC "-//W3C//DTD SVG 20010904//EN"
 "http://www.w3.org/TR/2001/REC-SVG-20010904/DTD/svg10.dtd">
<svg version="1.0" xmlns="http://www.w3.org/2000/svg"
 width="68.000000pt" height="70.000000pt" viewBox="0 0 68.000000 70.000000"
 preserveAspectRatio="xMidYMid meet">

<g transform="translate(0.000000,70.000000) scale(0.100000,-0.100000)"
fill="#000000" stroke="none">
<path d="M565 581 c-22 -10 -65 -24 -95 -31 -67 -15 -77 -22 -82 -60 -7 -47
34 -34 43 14 3 13 25 24 82 41 43 12 86 30 95 39 21 20 8 19 -43 -3z"> <animate attributeName="fill" values="#161515;#ecdc98;#161515" dur="7s" repeatCount="indefinite"/>
</path>
<path d="M304 565 c-4 -9 -2 -21 4 -27 15 -15 44 -1 40 19 -4 23 -36 29 -44 8z"> <animate attributeName="fill" values="#161515;#ecdc98;#161515" dur="7s" repeatCount="indefinite"/>
</path>
<path d="M86 553 c-7 -18 9 -33 35 -33 9 0 32 -3 50 -6 27 -4 31 -3 19 6 -13
9 -12 11 5 8 15 -3 19 -11 18 -32 -2 -33 -11 -45 -21 -30 -4 6 -14 14 -22 17
-11 4 -10 6 5 7 l20 1 -20 9 c-11 5 -31 9 -45 9 l-25 0 23 -11 c12 -6 22 -15
22 -20 0 -4 7 -8 15 -8 8 0 15 -5 15 -11 0 -5 10 -9 22 -7 13 2 23 -2 23 -9 0
-16 5 -19 43 -26 21 -4 31 -3 27 3 -3 6 -21 10 -38 11 -31 1 -31 1 7 10 51 12
62 23 15 14 -28 -5 -38 -3 -49 12 -12 15 -12 16 0 6 20 -18 46 -17 31 1 -6 7
-9 20 -6 28 8 21 -10 32 -82 51 -77 21 -79 21 -87 0z m59 -13 c25 -11 -1 -11
-35 0 -20 6 -21 8 -5 8 11 0 29 -3 40 -8z"> <animate attributeName="fill" values="#161515;#ecdc98;#161515" dur="7s" repeatCount="indefinite"/>
</path>
<path d="M505 532 c-35 -9 -52 -18 -41 -20 15 -3 16 -6 5 -13 -10 -6 -5 -9 16
-9 36 0 73 19 40 21 -13 0 -8 4 13 10 17 5 32 14 32 19 0 6 -1 10 -2 9 -2 -1
-30 -8 -63 -17z"> <animate attributeName="fill" values="#161515;#ecdc98;#161515" dur="7s" repeatCount="indefinite"/>
</path>
<path d="M300 512 c0 -4 11 -9 25 -10 14 -1 25 3 25 8 0 6 -11 10 -25 10 -14
0 -25 -4 -25 -8z"> <animate attributeName="fill" values="#161515;#ecdc98;#161515" dur="7s" repeatCount="indefinite"/>
</path>
<path d="M323 415 c0 -44 2 -61 4 -37 2 23 2 59 0 80 -2 20 -4 1 -4 -43z"> <animate attributeName="fill" values="#161515;#ecdc98;#161515" dur="7s" repeatCount="indefinite"/>
</path>
<path d="M423 467 c-13 -14 -26 -17 -52 -13 -45 7 -31 -5 16 -14 38 -8 38 -8
6 -9 -17 0 -34 -5 -37 -10 -3 -4 13 -5 35 -1 39 7 65 20 40 20 -7 0 -10 4 -7
9 3 5 15 7 26 4 11 -3 20 -1 20 5 0 6 8 12 18 14 10 3 4 6 -16 9 -23 4 -37 0
-49 -14z m32 3 c3 -5 1 -10 -4 -10 -6 0 -11 5 -11 10 0 6 2 10 4 10 3 0 8 -4
11 -10z"> <animate attributeName="fill" values="#161515;#ecdc98;#161515" dur="7s" repeatCount="indefinite"/>
</path>
<path d="M227 393 c-25 -24 8 -63 54 -63 l22 0 -23 -25 c-20 -21 -22 -28 -12
-50 6 -14 19 -25 28 -25 15 0 15 2 -2 21 -26 29 -9 50 54 69 66 19 98 45 82
65 -12 15 -80 18 -80 4 0 -16 20 -19 39 -7 22 14 36 6 28 -15 -3 -8 -28 -20
-55 -26 -41 -10 -55 -10 -90 4 -23 10 -42 21 -42 25 0 16 21 22 35 10 15 -12
35 -6 35 11 0 10 -63 13 -73 2z"> <animate attributeName="fill" values="#161515;#ecdc98;#161515" dur="7s" repeatCount="indefinite"/>
</path>
<path d="M360 295 c17 -21 4 -51 -30 -65 -16 -7 -34 -18 -41 -26 -13 -15 -4
-64 12 -64 6 0 6 7 -1 20 -14 26 -7 36 39 60 21 10 41 28 43 38 6 22 -8 52
-24 52 -7 0 -6 -5 2 -15z"> <animate attributeName="fill" values="#161515;#ecdc98;#161515" dur="7s" repeatCount="indefinite"/>
</path>
<path d="M322 270 c0 -19 2 -27 5 -17 2 9 2 25 0 35 -3 9 -5 1 -5 -18z"> <animate attributeName="fill" values="#161515;#ecdc98;#161515" dur="7s" repeatCount="indefinite"/>
</path>
<path d="M348 198 c12 -16 7 -48 -8 -48 -5 0 -11 10 -13 23 -3 18 -4 18 -3 -4
0 -14 -7 -34 -17 -43 -35 -36 -15 -32 24 4 42 38 49 68 19 78 -12 4 -13 3 -2
-10z"> <animate attributeName="fill" values="#161515;#ecdc98;#161515" dur="7s" repeatCount="indefinite"/>
</path>
<path d="M346 107 c3 -10 9 -15 12 -12 3 3 0 11 -7 18 -10 9 -11 8 -5 -6z"> <animate attributeName="fill" values="#161515;#ecdc98;#161515" dur="7s" repeatCount="indefinite"/>
</path>
<path d="M322 90 c0 -14 2 -19 5 -12 2 6 2 18 0 25 -3 6 -5 1 -5 -13z"> <animate attributeName="fill" values="#161515;#ecdc98;#161515" dur="7s" repeatCount="indefinite"/>
</path>
</g>
</svg>
