<?xml version="1.0" standalone="no"?>
<!DOCTYPE svg PUBLIC "-//W3C//DTD SVG 20010904//EN"
 "http://www.w3.org/TR/2001/REC-SVG-20010904/DTD/svg10.dtd">
<svg version="1.0" xmlns="http://www.w3.org/2000/svg"
 width="91.000000pt" height="172.000000pt" viewBox="0 0 91.000000 172.000000"
 preserveAspectRatio="xMidYMid meet">

<g transform="translate(0.000000,172.000000) scale(0.100000,-0.100000)"
fill="#000000" stroke="none">
<path d="M545 1573 c-11 -2 -30 -6 -43 -9 -37 -8 -98 -70 -121 -125 -29 -66
-42 -219 -19 -219 12 0 16 19 20 89 5 76 10 98 35 143 62 109 175 128 259 45
48 -49 64 -92 71 -200 7 -100 29 -101 26 -2 -3 89 -25 161 -62 206 -42 50
-116 82 -166 72z"/>
<path d="M166 1529 c12 -13 19 -35 19 -61 0 -36 -6 -44 -53 -85 -47 -41 -52
-48 -52 -86 1 -65 46 -107 114 -107 78 0 130 95 92 169 l-17 32 -18 -22 c-27
-34 -43 -16 -25 27 19 46 11 86 -28 124 -33 34 -62 42 -32 9z m52 -87 c0 -20
-4 -45 -9 -54 -20 -37 15 -63 45 -33 13 13 16 11 26 -19 15 -45 4 -81 -32
-111 -34 -29 -66 -32 -108 -10 -35 18 -50 43 -50 85 0 24 12 42 56 85 52 50
56 57 52 91 -4 30 -2 33 8 19 7 -9 12 -33 12 -53z"/>
<path d="M201 1428 c-1 -9 -23 -35 -51 -58 -41 -34 -50 -48 -50 -73 0 -18 7
-41 16 -52 14 -18 14 -18 8 11 -4 22 -1 34 14 48 20 17 21 17 41 -3 12 -12 33
-21 47 -21 23 0 26 -3 21 -26 -4 -21 -2 -24 9 -12 13 13 18 43 16 88 -2 19 -5
21 -14 12 -16 -16 -43 -15 -58 3 -10 12 -10 21 0 44 7 17 10 36 7 43 -4 9 -6
8 -6 -4z"/>
<path d="M489 1497 c-115 -77 -62 -250 77 -250 139 0 186 197 61 256 -49 23
-98 21 -138 -6z"/>
<path d="M112 1463 c-17 -43 -18 -58 -3 -58 9 0 14 14 15 43 1 23 1 42 0 42
-1 0 -6 -12 -12 -27z"/>
<path d="M276 1438 c3 -13 12 -30 19 -38 7 -8 15 -26 17 -40 3 -19 6 -12 12
23 6 35 5 52 -4 60 -10 9 -11 9 -6 0 3 -6 1 -15 -5 -18 -6 -4 -13 2 -16 14 -3
12 -10 21 -15 21 -5 0 -6 -10 -2 -22z"/>
<path d="M36 1318 c-11 -25 13 -118 30 -118 17 0 17 5 2 33 -7 12 -15 40 -18
62 -5 30 -9 36 -14 23z"/>
<path d="M630 1224 c0 -5 -31 -9 -68 -10 -75 0 -149 -23 -177 -53 -9 -11 -27
-45 -39 -76 l-23 -56 -23 56 c-25 62 -50 85 -92 85 -21 0 -29 -6 -34 -25 -5
-19 0 -31 24 -53 21 -20 37 -52 56 -113 30 -99 53 -128 91 -111 16 7 27 24 34
52 6 22 16 58 21 80 6 22 13 40 16 40 8 0 -5 -117 -18 -160 -5 -19 -12 -71
-14 -115 -6 -120 -44 -547 -53 -607 -5 -29 -7 -58 -4 -65 3 -7 24 -18 47 -25
22 -6 50 -20 62 -30 22 -20 79 -24 90 -7 6 10 23 9 102 -7 26 -5 40 -2 61 13
15 11 41 24 58 27 53 12 57 25 45 134 -17 144 -42 434 -46 539 -3 72 -9 100
-25 126 -22 35 -26 97 -12 147 7 24 8 23 20 -15 6 -22 23 -105 36 -185 14 -80
27 -151 30 -157 6 -17 50 -17 63 0 8 9 7 40 -3 108 -29 192 -61 317 -96 375
-11 17 -19 39 -19 47 0 9 -8 21 -18 26 -26 14 -92 24 -92 15z m76 -32 c8 -5 6
-38 -8 -117 -22 -124 -19 -196 7 -225 10 -11 15 -23 11 -28 -9 -8 -292 -10
-300 -1 -3 3 2 53 11 111 l17 106 38 17 c20 9 64 43 97 75 33 32 58 51 55 42
-5 -14 -3 -13 10 2 26 33 18 8 -25 -75 -23 -44 -62 -100 -86 -126 -24 -25 -42
-47 -39 -50 13 -14 101 98 143 183 47 96 50 99 69 86z m18 -462 c3 -36 13
-148 21 -250 8 -102 20 -225 26 -273 11 -86 8 -117 -9 -117 -9 0 -24 135 -47
410 -11 132 -12 138 -14 62 0 -45 8 -171 19 -279 11 -108 19 -198 17 -199 -2
-2 -24 -7 -49 -10 l-45 -6 -6 38 c-3 22 -11 110 -18 197 -7 86 -16 157 -21
157 -4 0 -5 -26 -2 -57 27 -286 29 -335 17 -340 -24 -10 -163 8 -163 20 0 7
11 116 24 242 32 300 38 387 27 355 -5 -14 -14 -83 -21 -155 -13 -158 -39
-402 -45 -431 -4 -17 -10 -20 -31 -16 -26 5 -26 7 -20 56 10 81 55 536 58 589
2 26 1 47 -2 47 -3 0 -21 -150 -39 -332 -18 -183 -35 -336 -38 -340 -8 -14
-24 3 -19 20 6 19 42 388 51 527 3 50 8 104 11 121 l4 31 154 -1 154 -1 6 -65z"/>
<path d="M589 1113 c-18 -26 -50 -64 -71 -85 -21 -21 -34 -38 -29 -38 10 0
101 96 126 133 31 48 10 39 -26 -10z"/>
</g>
</svg>
