<?xml version="1.0" standalone="no"?>
<!DOCTYPE svg PUBLIC "-//W3C//DTD SVG 20010904//EN"
 "http://www.w3.org/TR/2001/REC-SVG-20010904/DTD/svg10.dtd">
<svg version="1.0" xmlns="http://www.w3.org/2000/svg"
 width="85.000000pt" height="147.000000pt" viewBox="0 0 85.000000 147.000000"
 preserveAspectRatio="xMidYMid meet">

<g transform="translate(0.000000,147.000000) scale(0.100000,-0.100000)"
fill="#e4f5f5" stroke="none">
<path d="M761 1332 c-15 -28 -14 -32 9 -32 21 0 26 16 11 39 -7 11 -11 10 -20
-7z"/>
<path d="M744 1277 c-3 -10 -3 -30 2 -45 4 -15 7 -83 6 -152 -1 -80 2 -118 8
-105 5 11 9 65 10 120 0 71 5 106 15 119 21 28 20 70 -2 62 -9 -4 -20 -1 -24
6 -6 9 -10 8 -15 -5z"/>
<path d="M348 1145 c-30 -30 -39 -65 -37 -149 2 -57 2 -55 10 28 10 119 26
136 119 136 71 0 89 -10 109 -60 6 -16 10 -19 10 -8 1 9 -11 30 -25 47 -24 29
-30 31 -94 31 -59 0 -71 -3 -92 -25z"/>
<path d="M440 1140 c-18 -12 -2 -12 25 0 13 6 15 9 5 9 -8 0 -22 -4 -30 -9z"/>
<path d="M490 1136 c0 -2 7 -7 16 -10 8 -3 12 -2 9 4 -6 10 -25 14 -25 6z"/>
<path d="M363 1068 c-20 -9 -23 -19 -22 -62 0 -28 3 -45 6 -39 3 9 10 10 23 3
15 -8 21 -6 30 10 15 28 63 27 84 -2 15 -23 16 -23 27 -3 12 19 12 19 19 0 5
-12 7 0 6 30 -1 42 -5 51 -26 62 -30 15 -116 16 -147 1z"/>
<path d="M564 993 c0 -46 -2 -83 -6 -83 -5 0 -9 10 -9 23 -1 14 -4 9 -8 -12
-5 -27 -17 -43 -53 -69 l-48 -34 -47 34 c-37 26 -49 42 -54 69 -4 20 -7 25 -8
12 -1 -27 -18 -39 -23 -16 -4 22 -78 -127 -78 -157 0 -21 -63 -60 -77 -47 -3
4 -1 40 5 79 6 40 9 74 8 75 -2 2 -11 -18 -21 -44 -10 -27 -25 -64 -33 -83
l-15 -35 -28 85 -27 85 4 -100 c7 -150 10 -164 36 -157 22 5 22 2 2 -148 -5
-37 -2 -33 26 35 l13 30 13 -40 c12 -40 12 -40 13 40 1 44 5 85 9 91 4 5 30
18 57 28 67 25 72 30 79 81 12 77 26 62 26 -28 0 -56 -5 -95 -15 -113 -8 -16
-14 -40 -14 -54 1 -17 4 -11 11 18 l9 42 78 0 c43 0 99 3 125 6 l46 7 1 -39
c1 -34 2 -36 9 -14 6 23 8 22 14 -15 11 -60 17 -66 11 -12 -2 26 -11 61 -20
77 -18 34 -22 220 -5 220 15 0 50 -61 50 -87 0 -12 9 -27 21 -34 18 -9 26 -7
51 18 24 24 30 40 34 89 l6 59 -30 -34 -29 -34 -19 31 c-10 18 -21 32 -24 32
-3 1 -16 10 -30 21 -21 18 -25 32 -31 102 l-7 82 2 -82z m-474 -309 c0 -5 -7
-19 -15 -30 -13 -17 -14 -12 -14 56 l0 75 15 -45 c7 -25 14 -50 14 -56z m46
36 c-6 -41 -4 -50 9 -50 19 0 19 -8 -1 -56 -9 -22 -20 -50 -25 -63 -14 -35
-18 -22 -10 32 7 42 6 47 -12 47 -11 0 -17 5 -14 13 29 74 53 127 56 127 2 0
1 -22 -3 -50z"/>
<path d="M416 964 c-9 -23 -8 -24 17 -24 29 0 37 7 30 26 -7 19 -39 18 -47 -2z"/>
<path d="M747 939 c-21 -12 -22 -42 -2 -59 9 -8 12 -17 7 -24 -5 -6 -14 -162
-21 -346 -6 -184 -14 -359 -18 -387 -3 -30 -1 -53 4 -53 9 0 33 470 33 630 0
63 5 84 29 133 16 32 27 67 24 78 -7 26 -34 40 -56 28z"/>
<path d="M322 540 c0 -14 2 -19 5 -12 2 6 2 18 0 25 -3 6 -5 1 -5 -13z"/>
<path d="M542 479 c-18 -78 -75 -192 -121 -242 -37 -40 -113 -87 -140 -87 -6
0 -12 26 -14 57 l-3 58 -2 -62 c-1 -35 2 -63 6 -63 4 0 12 -15 17 -33 9 -28
15 -32 46 -35 33 -3 38 0 50 27 13 28 18 31 59 31 42 0 47 -3 57 -31 11 -27
15 -30 50 -27 32 3 39 8 48 33 5 17 13 32 17 35 4 3 -63 4 -149 2 -114 -3
-154 -1 -149 7 4 6 12 11 17 11 25 0 95 59 128 109 41 60 85 163 96 224 11 55
0 45 -13 -14z"/>
<path d="M277 458 c-4 -29 -6 -82 -5 -118 1 -49 3 -38 9 50 9 120 6 157 -4 68z"/>
<path d="M312 465 c0 -16 2 -22 5 -12 2 9 2 23 0 30 -3 6 -5 -1 -5 -18z"/>
<path d="M607 340 c3 -80 7 -147 9 -149 7 -8 2 172 -6 234 -5 38 -6 6 -3 -85z"/>
<path d="M302 350 c0 -19 2 -27 5 -17 2 9 2 25 0 35 -3 9 -5 1 -5 -18z"/>
<path d="M293 235 c0 -27 2 -38 4 -22 2 15 2 37 0 50 -2 12 -4 0 -4 -28z"/>
</g>
</svg>
