<?xml version="1.0" standalone="no"?>
<!DOCTYPE svg PUBLIC "-//W3C//DTD SVG 20010904//EN"
 "http://www.w3.org/TR/2001/REC-SVG-20010904/DTD/svg10.dtd">
<svg version="1.0" xmlns="http://www.w3.org/2000/svg"
 width="350.000000pt" height="713.000000pt" viewBox="0 0 350.000000 713.000000"
 preserveAspectRatio="xMidYMid meet">

<g transform="translate(0.000000,713.000000) scale(0.100000,-0.100000)"
fill="#000000" stroke="none">
<path d="M3359 7011 c-19 -21 -95 -109 -169 -196 -74 -87 -196 -229 -270 -315
-74 -86 -144 -168 -155 -181 -25 -30 -318 -371 -566 -658 -101 -117 -195 -228
-209 -245 -14 -18 -79 -95 -146 -172 -142 -163 -448 -517 -507 -588 -23 -27
-60 -70 -82 -95 -23 -25 -79 -91 -125 -146 -46 -55 -131 -154 -189 -220 -130
-150 -162 -187 -353 -410 -84 -99 -229 -268 -322 -375 l-169 -195 882 -3 c608
-1 881 -5 881 -13 0 -5 -12 -31 -26 -57 -15 -26 -50 -90 -79 -142 -29 -52 -85
-153 -125 -225 -40 -71 -86 -154 -102 -184 -16 -29 -83 -150 -150 -270 -66
-119 -156 -279 -198 -356 -43 -77 -133 -239 -200 -360 -67 -121 -135 -242
-150 -270 -103 -185 -132 -238 -167 -300 -48 -84 -184 -329 -226 -405 -17 -30
-50 -90 -74 -132 -24 -43 -63 -114 -88 -159 -24 -45 -48 -86 -53 -92 -5 -7
-28 -48 -51 -92 -49 -93 -52 -96 124 110 61 71 168 197 240 280 72 83 164 191
205 239 41 48 125 145 185 215 203 236 330 384 390 456 33 40 125 148 205 241
80 93 186 216 234 274 49 58 144 168 211 245 119 136 421 485 630 730 57 66
145 169 197 228 123 144 231 270 386 450 70 82 155 181 189 220 34 40 60 73
59 75 -2 1 -395 2 -874 2 -596 0 -873 3 -877 10 -6 9 76 164 265 500 26 47 94
168 151 270 56 102 142 256 191 343 48 87 88 160 88 161 0 2 23 43 51 92 76
131 311 553 418 749 31 55 149 268 231 415 29 52 66 120 83 150 16 30 38 67
48 82 11 14 19 29 19 33 0 4 30 60 67 124 80 139 114 201 109 201 -2 0 -19
-17 -37 -39z"> 
<animate attributeName="fill" values="#161515;#ecdc98;#161515" dur="7s" repeatCount="indefinite"/>
</path>
</g>
</svg>
