<?xml version="1.0" standalone="no"?>
<!DOCTYPE svg PUBLIC "-//W3C//DTD SVG 20010904//EN"
 "http://www.w3.org/TR/2001/REC-SVG-20010904/DTD/svg10.dtd">
<svg version="1.0" xmlns="http://www.w3.org/2000/svg"
 width="129.000000pt" height="251.000000pt" viewBox="0 0 129.000000 251.000000"
 preserveAspectRatio="xMidYMid meet">

  <g transform="translate(0.000000,251.000000) scale(0.100000,-0.100000)"
     fill="#000000" stroke="none">
    <path d="M637 2434 c-3 -5 -27 -67 -55 -139 -27 -71 -53 -138 -58 -149 -6 -16
      -1 -15 39 8 26 15 50 25 54 23 5 -3 3 -74 -4 -159 -6 -84 -12 -275 -12 -425
      -1 -149 -4 -274 -8 -276 -5 -3 -62 21 -128 54 -66 32 -157 70 -202 85 -46 15
      -83 29 -83 32 0 3 12 30 26 60 42 90 75 235 79 349 1 55 6 106 9 112 7 11 -24
      194 -31 187 -11 -11 -32 -211 -23 -214 30 -10 -28 -246 -98 -397 -28 -59 -48
      -114 -45 -122 6 -15 62 -46 162 -88 93 -39 303 -144 322 -161 14 -12 17 -76
      23 -512 6 -450 14 -613 31 -630 29 -29 39 116 53 793 l7 349 90 48 c50 26 140
      68 200 94 168 71 205 91 205 114 0 11 -17 55 -39 98 -77 154 -137 388 -105
      410 7 5 5 43 -5 115 -8 59 -16 105 -18 103 -2 -2 -10 -33 -17 -70 -11 -53 -13
      -99 -6 -209 10 -155 34 -264 80 -364 31 -67 29 -75 -25 -87 -49 -12 -154 -55
      -258 -107 -53 -27 -99 -49 -101 -49 -2 0 -6 145 -9 323 -4 177 -11 371 -16
      431 -6 60 -8 113 -5 117 3 5 23 -3 45 -18 22 -14 42 -24 44 -21 3 3 -8 36 -23
      74 -16 38 -39 98 -51 134 -24 73 -36 96 -44 84z">
      <animate attributeName="fill" values="#161515;#ecdc98;#161515" dur="7s" repeatCount="indefinite"/>
    </path>
  </g>
</svg>
